<svg version="1.1" xmlns="http://www.w3.org/2000/svg" width="396" height="186.68571428571428" viewBox="0 0 350 165" class="looka-1j8o68f"><defs id="SvgjsDefs2173"></defs><g id="SvgjsG2174" featurekey="rootContainer" transform="matrix(1,0,0,1,0,0)" fill="#f7f7f7"><rect y="0" height="1" width="1" opacity="0"></rect><rect y="160" width="350" height="5"></rect></g><g id="SvgjsG2175" featurekey="nameFeature-0" transform="matrix(3.617196538639888,0,0,3.617196538639888,-0.28937550102142484,-1.3880445690287786)" fill="#f7f7f7"><path d="M1.8 41.4 l-0.48 -0.16 c-0.2 -0.08 -0.4 -0.2 -0.44 -0.28 c-0.08 -0.08 -0.2 -0.2 -0.32 -0.24 s-0.24 -0.16 -0.28 -0.32 l-0.16 -0.4 c-0.04 -0.04 -0.04 -0.12 -0.04 -0.24 s0 -0.32 0.08 -0.64 c0.16 -0.76 0.48 -1.84 0.72 -2.48 l0.36 -1.04 c0.24 -0.68 0.76 -1.92 1.12 -2.76 l0.32 -0.76 c0.04 -0.12 0.2 -0.56 0.4 -0.92 c0.16 -0.4 0.4 -0.84 0.48 -1.08 c0.04 -0.16 0.12 -0.32 0.2 -0.32 c0.04 0 0.04 0 0.04 -0.04 l-0.04 -0.08 l-0.08 -0.08 l-0.28 0.08 l-0.48 -0.08 c-0.56 -0.08 -1.08 -0.36 -1.08 -0.56 l0 -0.04 c0 -0.08 0 -0.12 -0.04 -0.12 c-0.04 -0.04 -0.12 -0.16 -0.2 -0.36 l-0.28 -0.52 c-0.12 -0.16 -0.16 -0.48 -0.16 -0.76 c0 -0.36 0.08 -0.68 0.2 -0.68 l0.04 0 l0.32 -0.08 c0.12 -0.08 0.28 -0.08 0.36 -0.08 l0.16 0 l1.6 -0.08 l0.2 -0.04 l0.2 0.04 c0.08 0 0.32 0 0.52 -0.04 l0.52 -0.08 c0.2 -0.04 0.24 -0.12 0.72 -1 l0.44 -0.88 c0.08 -0.08 0.2 -0.32 0.32 -0.56 c0.4 -0.76 1.52 -2.76 1.8 -3.16 l0.2 -0.36 c0.32 -0.64 1.12 -1.92 1.24 -1.92 c0.04 0 0.08 0 0.08 -0.04 c0 -0.12 0.36 -0.88 0.52 -1 l0.12 -0.24 l0.44 -0.72 c0.24 -0.36 0.44 -0.68 0.44 -0.76 l0.16 -0.32 c0.12 -0.12 0.4 -0.56 0.68 -0.96 c1.28 -1.8 1.76 -2.6 1.76 -2.76 c0 -0.04 0.04 -0.12 0.12 -0.16 c0.04 -0.04 0.28 -0.24 0.48 -0.52 l0.6 -0.76 l0.32 -0.48 l0.04 0 c0.04 0 0.08 -0.04 0.08 -0.08 c0.04 -0.04 0.24 -0.36 0.52 -0.68 c0.28 -0.36 0.52 -0.72 0.52 -0.8 c0.04 -0.2 0.44 -0.64 0.56 -0.64 l0.08 0 c0.08 0 0.2 -0.2 0.2 -0.32 c0 -0.08 0.16 -0.24 0.24 -0.24 l0.08 0 c0.04 0 0.12 -0.04 0.16 -0.12 c0.12 -0.08 0.16 -0.16 0.16 -0.2 l-0.12 0 c0 -0.04 0.16 -0.16 0.52 -0.48 c0.44 -0.36 0.72 -0.52 0.92 -0.52 l0.04 0 c0.16 0.04 0.6 0.32 0.64 0.44 c0.04 0.04 0.08 0.12 0.16 0.12 c0.2 0.04 0.8 0.72 1.24 1.36 s0.48 0.72 0.52 1.32 c0.04 0.32 0.04 0.84 0.04 1.12 c-0.04 0.56 -0.48 3.32 -0.72 4.28 l-1.88 7.96 c-0.24 1.08 -0.56 2.32 -0.64 2.76 c-0.12 0.4 -0.16 0.6 -0.16 0.72 c0 0.08 0.04 0.12 0.12 0.12 l0.12 0.04 l-0.12 0.04 c-0.08 0 -0.12 0.08 -0.16 0.12 c0 0.08 0.24 0.12 0.4 0.12 c0.12 0 0.2 0 0.24 -0.04 l0.16 -0.04 c0.04 0 0.12 0 0.16 0.04 l0.16 0.04 l0.28 -0.12 l0.24 0.08 l0.2 0.04 l0 -0.04 l0.04 -0.08 l0.08 0.08 l0.12 0.04 l0.16 -0.04 l0.24 0.08 l0.16 -0.08 c0.2 0 0.6 0.12 0.64 0.2 c0.04 0.04 0.2 0.08 0.44 0.08 l0.28 0 c0.4 0 0.8 0.04 0.8 0.08 l-0.04 0.04 c-0.08 0 -0.16 0.08 -0.16 0.12 l0 0.04 c0 0.04 -0.04 0.08 -0.12 0.08 s-0.2 0.04 -0.2 0.08 l0.04 0.08 l0.24 -0.04 c0.2 0 0.4 0.04 0.4 0.12 c0 0.04 -0.84 0.12 -1.08 0.12 l-0.12 0 s-0.08 0 -0.12 -0.04 l-0.28 0.08 l-0.16 0.12 l0.24 0.04 l0.2 -0.04 l0.04 0.12 c0 0.08 0.04 0.16 0.08 0.16 l0.08 0.04 c0 0.04 -0.08 0.08 -0.16 0.08 l-0.52 -0.08 l-0.2 0.04 l-0.28 -0.04 l-0.64 0.08 l-0.32 -0.04 l-0.32 0.04 l-0.16 0.04 c-0.04 0 -0.08 -0.04 -0.12 -0.08 l-0.08 -0.08 l-0.04 0.04 c-0.04 0.04 -0.08 0.04 -0.16 0.04 l-0.08 0 c-0.12 0 -0.2 0 -0.24 0.04 l-0.08 0.04 l-0.16 -0.08 l0 0.12 l-0.24 -0.08 l-0.16 0.04 l-0.12 0.08 l0.56 0.24 c0.04 0 0.04 -0.04 0.04 -0.08 s0.04 -0.08 0.12 -0.08 l0.04 0.08 l0 0.04 l0.04 0.08 c0.08 0 0.16 -0.04 0.2 -0.08 c0 -0.04 0.16 -0.08 0.28 -0.12 c0.16 0 0.24 0 0.24 0.04 l0 0.04 c0 0.08 0.04 0.12 0.24 0.12 l0.36 0 c0.32 0 0.6 -0.04 0.64 -0.08 c0 -0.04 0.2 -0.08 0.4 -0.08 c0.36 0 0.8 0.08 0.84 0.16 l0 0.04 c0 0.04 -0.08 0.08 -0.2 0.08 l-0.12 0 l-0.04 -0.04 l0.12 -0.08 l-0.48 -0.04 c-0.12 0 -0.24 0.04 -0.36 0.08 c-0.16 0.08 -0.4 0.12 -0.8 0.12 l-1.08 0 l-0.24 0.04 l-0.16 -0.04 l-0.16 0.08 c-0.08 0.08 -0.24 0.12 -0.28 0.12 l-0.12 0 c-0.2 0 -0.24 0.12 -0.32 0.56 l-0.2 1.28 c-0.04 0.4 -0.12 1 -0.12 1.28 l-0.12 1.68 l-0.08 0.96 c-0.16 1.4 -0.2 2.32 -0.2 3.32 l0.04 2.04 c0 0.28 -0.04 0.48 -0.12 0.48 l-0.04 0 l-0.32 0.04 l-0.2 0.08 l-0.08 -0.04 c-0.08 -0.04 -0.12 -0.04 -0.12 -0.08 c-0.04 0 -0.04 -0.04 -0.04 -0.08 l0 -0.08 l-0.04 -0.08 c-0.04 0 -0.08 0.04 -0.08 0.08 l-0.04 0 l-0.08 -0.12 c-0.08 -0.16 -0.2 -0.24 -0.44 -0.32 c-0.56 -0.12 -1.08 -0.88 -1.08 -1.44 l0 -0.08 c0 -0.24 0 -0.36 -0.12 -0.44 l-0.08 -0.16 l0.04 -0.16 l-0.04 -0.24 c-0.08 -0.16 -0.08 -0.44 -0.08 -0.6 l0 -0.96 c0 -0.32 0.04 -0.52 0.12 -0.6 c0.08 -0.04 0.08 -0.08 0.08 -0.16 l-0.08 -0.48 l0.04 -0.16 l-0.04 -0.04 c-0.04 0 -0.04 -0.04 -0.04 -0.08 c0 -0.12 0.08 -0.28 0.12 -0.28 s0.08 -0.04 0.08 -0.08 l-0.12 -0.4 c0 -0.08 0.04 -0.12 0.08 -0.16 c0.04 -0.08 0.08 -0.36 0.08 -0.64 c0 -0.16 0 -0.28 -0.04 -0.32 s-0.04 -0.12 -0.04 -0.24 c0 -0.16 0.04 -0.36 0.08 -0.36 s0.12 -0.04 0.12 -0.12 l0 -0.08 l-0.16 0.12 l-0.04 -0.04 l0.16 -0.44 l-0.08 -0.2 l0.08 -0.04 c0.08 -0.04 0.12 -0.2 0.16 -0.56 l0.04 -0.36 l-0.04 -0.16 l0 -0.28 c0 -0.12 -0.04 -0.12 -0.16 -0.2 l-0.12 -0.04 c-0.04 0 -0.08 0.04 -0.08 0.08 c-0.04 0.08 -0.36 0.12 -0.84 0.12 s-1.04 0 -1.28 0.04 l-1.16 0.04 c-0.4 0 -0.6 -0.04 -0.8 -0.08 l-0.36 -0.04 c-0.2 0 -0.36 0.04 -0.36 0.12 c-0.04 0.04 -0.08 0.04 -0.16 0.04 l-0.48 0 l-1 0.12 c-0.16 0 -0.24 -0.04 -0.24 -0.08 l-0.16 -0.04 c-0.2 0 -0.6 0.08 -0.68 0.16 c-0.04 0.04 -0.12 0.04 -0.2 0.04 l-0.08 0 c-0.08 0 -0.2 0.04 -0.24 0.08 l-0.32 0.08 c-0.08 0 -0.12 0.04 -0.16 0.16 l0 0.04 c0 0.08 0.04 0.12 0.08 0.12 s0.12 -0.08 0.16 -0.16 l0.08 -0.12 l0.04 0 l-0.04 0.16 c-0.04 0.12 -0.08 0.24 -0.16 0.28 s-0.16 0.24 -0.16 0.32 c0 0.04 0 0.08 0.04 0.08 s0.04 0.04 0.04 0.08 c0 0.12 -0.12 0.32 -0.28 0.52 c-0.08 0.12 -0.16 0.2 -0.2 0.2 l-0.08 0.04 c-0.04 0.08 -0.08 0.24 -0.08 0.4 c0 0.2 -0.12 0.36 -0.28 0.36 l-0.12 0 c-0.08 0 -0.12 0.04 -0.12 0.12 l0 0.04 c0 0.08 0.04 0.12 0.16 0.12 c0.08 0 0.12 0.04 0.12 0.08 c0 0.08 -0.08 0.2 -0.2 0.28 c-0.08 0.04 -0.12 0.12 -0.12 0.12 l0 0.08 l-0.08 0.36 l-0.96 2.28 c-0.08 0.12 -0.16 0.32 -0.2 0.44 l-0.24 0.64 c-0.08 0.24 -0.16 0.36 -0.2 0.36 l-0.04 0 c-0.04 0 -0.08 0.08 -0.08 0.16 l0.04 0.16 l-0.04 0.4 c-0.08 0.16 -0.12 0.4 -0.16 0.48 c-0.04 0.2 -0.52 1.76 -0.6 1.92 l-0.2 0.56 c-0.08 0.24 -0.12 0.36 -0.2 0.36 l-0.08 -0.04 l-0.08 0.12 c0 0.04 -0.04 0.08 -0.08 0.08 l-0.04 0 c-0.04 0 -0.12 0.04 -0.16 0.16 c-0.04 0.08 -0.04 0.16 -0.12 0.16 z M19.12 9.239999999999998 l0.08 -0.04 l0.04 -0.04 l-0.04 -0.04 c-0.04 0 -0.08 0 -0.12 0.04 c0 0.04 0 0.08 0.04 0.08 z M18.88 9.48 c0.04 0 0.08 -0.04 0.08 -0.08 s0 -0.08 -0.04 -0.08 l-0.04 0 c-0.08 0 -0.12 0.04 -0.16 0.08 c0 0.04 0.04 0.08 0.12 0.08 l0.04 0 z M17.48 9.16 c0.04 -0.04 0.04 -0.08 0.04 -0.12 l-0.08 0.04 c0 0.08 0 0.08 0.04 0.08 z M19 9.68 l0.16 -0.08 c0.04 -0.04 0.08 -0.04 0.08 -0.08 l-0.12 0.04 c-0.12 0.04 -0.2 0.04 -0.2 0.08 z M17.08 9.48 c0.08 0 0.16 0 0.16 -0.04 l0.04 -0.04 l-0.04 -0.08 c-0.04 0 -0.12 0 -0.16 0.04 l-0.08 0.08 z M8.92 26.119999999999997 l0.32 -0.04 l0.88 -0.04 l-0.28 -0.16 l0.2 -0.04 c0.12 0 0.28 0.04 0.32 0.08 l0.08 0 c0.08 0 0.12 0 0.16 -0.04 s0.12 -0.04 0.2 -0.04 c0.04 0 0.12 0 0.12 0.08 c0 0.04 0 0.12 0.04 0.12 s0.92 0 1.56 -0.08 l0.84 0 l1.32 -0.04 c0.24 0 0.64 -0.04 0.64 -0.12 c0 -0.04 0.12 -0.04 0.24 -0.04 c0.32 0 0.36 -0.04 0.4 -0.48 l0 -0.28 c-0.04 0 -0.04 0.04 -0.08 0.16 l-0.04 0.12 l-0.04 -0.04 l0.04 -0.32 c0.04 -0.2 0.08 -0.32 0.12 -0.32 l0.04 0.2 l0.08 -0.24 c0.12 -0.28 0.24 -1 0.24 -1.36 c0 -0.12 0 -0.24 -0.04 -0.24 l-0.04 -0.08 l0.08 0 c0.08 0 0.12 -0.08 0.16 -0.2 c0 -0.12 0 -0.2 -0.04 -0.24 c-0.04 0 -0.08 -0.08 -0.08 -0.16 s0.04 -0.16 0.08 -0.16 c0.08 0 0.16 -0.08 0.16 -0.12 l0 -0.08 l-0.04 0 c-0.08 0 -0.08 -0.04 -0.08 -0.08 l0.08 -0.08 c0.12 0 1.08 -4 1.08 -4.44 l0 -0.04 s-0.08 0.04 -0.12 0.12 l-0.04 0.04 l0.04 -0.12 c0 -0.12 0.04 -0.2 0.08 -0.2 l0.08 0.04 l0.08 -0.08 l0 -0.04 l-0.08 -0.04 l-0.04 -0.08 l0.04 -0.16 l0.08 -0.12 l0.04 0.2 l0.04 -0.08 c0.24 -0.64 0.64 -2.48 0.64 -2.68 l-0.04 -0.12 l0.04 0 c0.12 0 0.28 -0.48 0.28 -0.76 l0 -0.08 c0 -0.16 0.04 -0.44 0.2 -0.76 c0.12 -0.28 0.16 -0.44 0.16 -0.56 c0 -0.04 0 -0.08 -0.04 -0.08 l-0.08 0 l0.08 -0.16 l-0.12 -0.08 l0.04 -0.04 c0.04 -0.04 0.08 -0.16 0.08 -0.24 l0.04 -0.16 l0.04 0 c0.04 0 0.12 -0.12 0.16 -0.24 l0 -0.28 c-0.04 0 -0.08 0 -0.08 -0.08 l0.04 -0.32 c0 -0.16 0 -0.24 -0.04 -0.24 s-0.16 0.12 -0.32 0.32 c-0.16 0.24 -0.32 0.36 -0.36 0.36 l-0.08 -0.04 c-0.04 0 -0.04 0.04 -0.04 0.12 c0 0.04 0 0.08 0.04 0.12 c0.08 0.04 0.08 0.08 0.08 0.12 l-0.12 0 c-0.04 0 -0.08 0.04 -0.12 0.12 c0 0.04 -0.12 0.16 -0.28 0.24 c-0.08 0.04 -0.12 0.04 -0.12 0.08 l0.12 0 l-0.08 0.16 l0.04 0.12 l-0.12 0 c-0.08 0 -0.08 0.04 -0.16 0.2 c0 0.04 -0.08 0.12 -0.16 0.16 s-0.16 0.08 -0.16 0.12 c-0.04 0.08 -0.12 0.16 -0.28 0.2 c-0.16 0.12 -0.24 0.2 -0.28 0.4 c-0.04 0.12 -0.08 0.2 -0.12 0.2 l-0.04 0 c-0.04 0 -0.08 0.04 -0.16 0.12 c-0.04 0.08 -0.12 0.16 -0.16 0.16 l-0.12 -0.04 l-0.04 0.04 l0.08 0.16 c0 0.04 -0.08 0.2 -0.24 0.4 s-0.24 0.32 -0.28 0.32 l-0.08 -0.16 l-0.08 0.08 l-0.12 -0.08 l-0.08 0.04 c0 0.04 0.08 0.12 0.16 0.16 c0.04 0.04 0.08 0.08 0.08 0.12 c-0.04 0.04 -0.08 0.16 -0.12 0.32 s-0.12 0.24 -0.2 0.24 s-0.16 0.08 -0.16 0.12 c0 0.08 0 0.12 0.04 0.12 l0.16 -0.08 l-0.08 0.16 l-0.08 0.04 l-0.08 0 c-0.08 0 -0.24 0.2 -0.36 0.56 c-0.04 0.16 -0.16 0.36 -0.2 0.4 l-0.2 0.36 c-0.04 0.2 -0.2 0.36 -0.36 0.48 c-0.44 0.28 -0.6 0.4 -0.6 0.44 l0.08 0 l0 0.12 c0 0.08 0.04 0.16 0.08 0.16 l0.08 0.04 l-0.08 0 c-0.08 0 -0.08 0.08 -0.08 0.16 l0 0.08 l-0.12 -0.04 l-0.12 0.08 c-0.12 0.08 -0.16 0.12 -0.16 0.2 l0.12 0.2 c0 0.04 -0.04 0.08 -0.12 0.12 c-0.04 0.04 -0.08 0.08 -0.08 0.12 l-0.12 0.08 c-0.08 0.04 -0.12 0.04 -0.12 0.2 l0 0.16 c0 0.12 0 0.2 -0.04 0.2 l-0.04 0 c-0.08 0 -0.16 0.12 -0.2 0.24 c-0.04 0.08 -0.16 0.2 -0.24 0.24 c-0.04 0.04 -0.08 0.08 -0.08 0.12 l0 0.04 l-0.16 0.32 l0.04 0.12 l0.08 0.04 l-0.08 0 c-0.04 0 -0.16 0.08 -0.24 0.16 c-0.12 0.2 -0.12 0.2 -0.24 0.52 c-0.08 0.16 -0.16 0.24 -0.2 0.24 s-0.04 0 -0.04 0.04 l0 0.04 c0 0.04 -0.04 0.12 -0.12 0.2 c-0.12 0.04 -0.16 0.16 -0.16 0.24 c0 0.04 0 0.08 -0.04 0.08 c-0.08 0 -0.08 0.04 -0.08 0.16 s-0.04 0.16 -0.16 0.16 l-0.16 0 c-0.12 0 -0.24 0 -0.24 0.08 l0 0.04 c0 0.04 0.04 0.08 0.12 0.08 c0.04 0 0.12 -0.04 0.12 -0.08 l0.08 -0.04 l0.04 0.08 c0 0.12 -0.12 0.32 -0.2 0.32 l-0.04 0 c-0.08 0 -0.16 0.12 -0.2 0.32 c-0.16 0.44 -0.56 1.24 -0.76 1.52 l-0.2 0.4 c0 0.12 -0.04 0.2 -0.12 0.2 l-0.12 0.2 c0 0.08 -0.04 0.16 -0.08 0.16 l-0.08 0 l0 0.04 l-0.16 0.52 l0 0.04 z M17.64 10.120000000000001 c0.04 0 0.08 -0.04 0.12 -0.16 c0 -0.12 0 -0.16 -0.04 -0.16 l-0.08 0.04 c-0.04 0.04 -0.08 0.08 -0.08 0.12 l0 0.04 c0 0.08 0.04 0.12 0.08 0.12 z M17.44 10.36 c0.04 -0.04 0.08 -0.08 0.08 -0.12 l0 -0.04 l-0.08 0 c-0.04 0.04 -0.08 0.08 -0.08 0.12 s0 0.04 0.08 0.04 z M17.88 10.64 l0.08 -0.08 l0.04 -0.08 l-0.04 0 c-0.04 0 -0.08 0.04 -0.12 0.08 c0 0.04 0 0.08 0.04 0.08 z M17.04 10.68 l0.12 -0.04 c0.12 -0.08 0.16 -0.12 0.16 -0.16 l-0.04 0 c-0.04 0 -0.08 0.04 -0.12 0.12 z M18.12 11.079999999999998 l0.08 -0.04 l0.04 -0.04 l-0.08 -0.04 c-0.04 0 -0.08 0 -0.08 0.04 s0 0.08 0.04 0.08 z M16.72 11.2 l0.16 -0.12 l0.08 -0.08 l-0.08 -0.04 c-0.04 0 -0.12 0.04 -0.16 0.12 l0 0.12 z M17.16 11.559999999999999 c0.04 0 0.08 0 0.12 -0.04 c0 -0.04 0 -0.08 -0.04 -0.08 l-0.08 0.04 l-0.04 0.04 z M17.6 11.64 c0.04 -0.04 0.04 -0.08 0.04 -0.12 l-0.08 0.04 c0 0.08 0 0.08 0.04 0.08 z M16.04 12 c0.12 0 0.2 -0.08 0.36 -0.32 l0.2 -0.32 c0 -0.04 0 -0.04 -0.04 -0.04 l-0.08 0.04 c-0.08 0.04 -0.16 0.08 -0.16 0.16 c-0.04 0.08 -0.12 0.2 -0.24 0.24 c-0.12 0.12 -0.16 0.16 -0.16 0.2 z M17.56 11.84 c0.04 0 0.04 -0.04 0.04 -0.08 l-0.04 0 l-0.04 0.04 l0 0.04 l0.04 0 z M15.28 11.48 l0 -0.12 c-0.04 0 -0.04 0 -0.04 0.04 l0 0.08 l0.04 0 z M18.8 12.440000000000001 l-0.04 0 l0 -0.04 c0 -0.04 0 -0.08 0.04 -0.08 l0.04 0.08 z M16.64 12.36 c0.04 0 0.08 -0.04 0.08 -0.12 s0 -0.2 -0.04 -0.28 l0 -0.08 c-0.04 0.04 -0.04 0.08 -0.04 0.2 l-0.04 0.2 z M14.32 11.48 l0 -0.12 c-0.04 0 -0.04 0.04 -0.04 0.08 l0 0.04 l0.04 0 z M15.36 13 l0.16 -0.04 c0.12 -0.08 0.2 -0.2 0.24 -0.28 c0 -0.08 0.08 -0.16 0.12 -0.2 c0.12 -0.04 0.2 -0.24 0.2 -0.32 c0 -0.04 0 -0.08 -0.04 -0.08 s-0.16 0.08 -0.24 0.16 l-0.28 0.4 c-0.12 0.16 -0.2 0.28 -0.2 0.32 s0 0.04 0.04 0.04 z M16.48 12.84 c0.04 0 0.04 -0.08 0.04 -0.12 l0 -0.04 l-0.04 0 l-0.04 0.16 l0.04 0 z M14.88 12.600000000000001 l0 -0.08 l-0.04 0 l0 0.08 l0.04 0 z M11.6 18.8 c0.04 0 0.16 -0.08 0.24 -0.2 l0.16 -0.28 c0.12 -0.24 0.64 -1.08 1.04 -1.6 c0.08 -0.16 0.8 -1.28 0.88 -1.48 c0.08 -0.16 0.12 -0.2 0.52 -0.76 s0.84 -1.24 0.84 -1.36 c-0.04 0 -0.12 0.08 -0.16 0.16 s-0.12 0.16 -0.16 0.16 l-0.04 0 l0 0.04 c0 0.04 -0.04 0.16 -0.12 0.28 c-0.4 0.44 -0.64 0.8 -0.64 0.88 s-0.08 0.16 -0.16 0.2 s-0.12 0.12 -0.16 0.2 c-0.04 0.2 -0.08 0.32 -0.16 0.32 l-0.12 0 l0.04 0.08 l0.08 0.08 l-0.08 0.08 c-0.08 0.04 -0.12 0.08 -0.16 0.16 c0 0.04 -0.12 0.2 -0.24 0.32 c-0.16 0.16 -0.28 0.36 -0.32 0.48 c0 0.08 -0.12 0.28 -0.24 0.4 s-0.2 0.24 -0.2 0.28 c0 0.08 -0.04 0.16 -0.08 0.24 c-0.08 0.08 -0.16 0.2 -0.16 0.24 l-0.2 0.28 c-0.04 0.08 -0.12 0.16 -0.12 0.2 l0 0.04 c0 0.04 -0.04 0.12 -0.12 0.2 s-0.16 0.16 -0.2 0.24 l0 0.04 c0 0.08 0 0.08 0.04 0.08 z M13.92 13.32 c0.08 0 0.2 -0.08 0.24 -0.16 l0.08 -0.2 l-0.04 0 c-0.08 0 -0.28 0.2 -0.32 0.28 l0 0.04 c0 0.04 0 0.04 0.04 0.04 z M13.6 13.16 c0.04 0 0.16 -0.08 0.2 -0.16 c0 -0.04 0 -0.04 -0.04 -0.04 l-0.08 0.04 c-0.08 0.04 -0.12 0.12 -0.12 0.16 l0.04 0 z M15.68 13.559999999999999 l0.04 -0.04 l0 -0.04 l-0.08 0.04 c0 0.04 0.04 0.04 0.04 0.04 z M15.84 13.760000000000002 l0 -0.12 c-0.04 0 -0.04 0 -0.04 0.04 l0 0.08 l0.04 0 z M18.24 14.64 l0 -0.16 c0.04 -0.08 0.04 -0.12 0.08 -0.12 c0 0.08 -0.04 0.2 -0.08 0.28 z M13.64 13.8 l0.08 -0.04 l-0.04 -0.08 c-0.04 0 -0.04 0 -0.04 0.04 l0 0.08 z M15.4 14.36 l0 -0.12 c-0.04 0 -0.04 0 -0.04 0.04 l0 0.04 c0 0.04 0 0.04 0.04 0.04 z M17.88 15.920000000000002 l0.04 -0.36 c0.08 -0.24 0.16 -0.44 0.2 -0.44 l0.04 0.04 l-0.08 0.36 c-0.12 0.28 -0.16 0.4 -0.2 0.4 z M13.24 14.559999999999999 c0.04 0 0.08 -0.04 0.12 -0.08 c0.08 -0.04 0.12 -0.12 0.12 -0.16 l-0.04 0 c-0.04 0 -0.08 0 -0.12 0.04 l-0.04 0.04 l0 -0.04 c0 -0.08 0 -0.08 -0.04 -0.08 s-0.04 0.08 -0.04 0.16 z M13 14.64 l0.08 -0.08 l0.04 -0.08 l-0.04 0 l-0.12 0.12 c0 0.04 0 0.04 0.04 0.04 z M13.36 14.879999999999999 c0.04 0 0.04 -0.08 0.04 -0.08 c0 -0.04 -0.04 -0.04 -0.04 -0.04 l-0.04 0.08 l0 0.04 l0.04 0 z M12.88 14.920000000000002 c0.04 0 0.04 -0.08 0.04 -0.12 s-0.04 -0.04 -0.04 -0.04 l-0.04 0.08 c0 0.04 0 0.08 0.04 0.08 z M14.48 15.64 c0.08 0 0.12 -0.04 0.16 -0.08 c0.08 -0.12 0.08 -0.2 0.08 -0.24 c-0.04 0 -0.08 0 -0.12 0.04 c-0.08 0.08 -0.16 0.16 -0.16 0.2 z M14.96 15.559999999999999 l-0.04 0 l0 -0.04 c0 -0.08 0.04 -0.08 0.04 -0.08 c0.04 0 0.04 0 0.04 0.04 c0 0 0 0.08 -0.04 0.08 z M12.76 15.84 c0.04 0 0.04 -0.08 0.08 -0.16 l0 -0.12 l-0.08 0.04 l-0.04 0.12 z M12.56 16.08 l0.04 -0.08 l0 -0.12 l-0.12 0.16 l0.04 0.04 l0.04 0 z M12.12 16 c0.08 0 0.08 0 0.08 -0.04 c-0.04 0 -0.04 0 -0.04 -0.04 l-0.08 0.04 z M12.48 16.6 l0.08 -0.04 l0.28 -0.24 l-0.12 0 c-0.12 0 -0.2 0.12 -0.24 0.24 l0 0.04 z M12.24 16.28 l0.04 -0.04 c0 -0.04 0 -0.04 -0.04 -0.04 l-0.04 0 z M13.68 16.64 c0 -0.04 -0.04 -0.08 -0.08 -0.12 l-0.04 0 l0 0.04 c0.04 0.04 0.04 0.08 0.08 0.08 l0.04 0 z M13.76 16.76 c0.04 -0.04 0.04 -0.08 0.04 -0.12 l-0.08 0.04 z M20.12 18.2 c0.04 0 0.04 -0.04 0.04 -0.08 l-0.04 -0.04 l-0.04 0.08 c0 0.04 0.04 0.04 0.04 0.04 z M17.44 17.8 l-0.04 0 l0.04 -0.12 l0.04 -0.08 c0 0.08 0 0.16 -0.04 0.2 z M12.36 16.6 l0.04 -0.04 l-0.08 -0.08 l-0.08 -0.04 l0 0.04 c0 0.04 0.08 0.12 0.12 0.12 z M13.12 17.44 c0.04 0 0.12 -0.08 0.2 -0.2 c0.12 -0.12 0.2 -0.32 0.2 -0.4 l0.04 -0.04 l-0.04 0 c-0.04 0 -0.08 0.08 -0.2 0.24 c-0.2 0.28 -0.28 0.36 -0.28 0.4 l0.08 0 z M12.24 16.92 c0.08 0 0.12 -0.08 0.12 -0.16 l0 -0.08 l-0.04 0.04 c-0.04 0.04 -0.08 0.04 -0.12 0.04 l-0.08 -0.04 l-0.08 0.04 l-0.12 0.16 l0.04 0 c0.04 0 0.08 0 0.12 -0.04 l0.08 -0.08 l0.04 0.04 c0 0.08 0 0.08 0.04 0.08 z M11.52 17.12 c0.04 0 0.12 -0.08 0.12 -0.2 l0.04 -0.12 l-0.04 -0.08 l-0.08 0.04 l-0.12 0.36 l0.08 0 z M11.92 17.16 c0.04 0 0.08 0 0.08 -0.04 l0.04 -0.04 l-0.08 -0.04 c-0.08 0 -0.12 0 -0.12 0.04 l0 0.04 l0.04 0.04 l0.04 0 z M17.24 18.84 l-0.04 0 l0 -0.04 c0 -0.04 0 -0.08 0.04 -0.08 l0.04 0.08 z M11.08 18.48 c0.04 0 0.08 -0.04 0.08 -0.08 l0 -0.04 l-0.08 -0.04 c-0.04 0.04 -0.08 0.08 -0.08 0.12 s0 0.04 0.04 0.04 l0.04 0 z M10.88 18.48 l0.04 -0.08 c0 -0.04 -0.04 -0.08 -0.08 -0.08 s-0.04 0.04 -0.04 0.08 z M10.64 18.44 c0.04 0 0.04 0 0.04 -0.04 l-0.08 -0.12 l-0.04 0 z M10.72 20.28 l0.36 -0.48 c0.24 -0.32 0.36 -0.6 0.4 -0.72 l0 -0.04 c0 -0.08 -0.04 -0.12 -0.04 -0.12 l-0.12 0.08 l-0.04 0.04 l-0.12 -0.04 l-0.08 -0.12 l0.08 -0.16 l-0.12 0.04 c-0.12 0.04 -0.16 0.16 -0.16 0.28 c0 0.04 0 0.08 0.04 0.08 s0.08 -0.04 0.12 -0.08 l0.04 -0.04 l0.04 0.04 l0 0.08 c0 0.2 -0.16 0.68 -0.28 0.76 l-0.12 0.24 l-0.04 0.16 l0.04 0 z M16.84 20.24 l0 -0.12 c0 -0.04 0 -0.08 0.04 -0.08 l0 0.12 z M10.48 19.4 c0.04 0 0.12 -0.08 0.2 -0.2 l0.08 -0.16 l-0.08 0 c-0.12 0.08 -0.24 0.24 -0.24 0.32 z M11.92 19.56 c0.04 -0.04 0.04 -0.08 0.04 -0.16 c0 -0.04 0 -0.04 -0.04 -0.04 l-0.04 0.16 z M16.72 20.84 l0 -0.16 l0.08 -0.16 l-0.04 0.28 z M10.12 19.28 c0.04 0 0.08 -0.04 0.12 -0.08 l0.04 -0.04 l-0.04 -0.04 l-0.04 0 c-0.08 0 -0.16 0.08 -0.16 0.12 l0.04 0.04 l0.04 0 z M11.88 20.04 c0.04 0 0.08 -0.04 0.12 -0.08 l0 -0.08 l-0.08 0.08 z M16.6 21.2 l-0.04 -0.04 l0.12 -0.12 c0.04 0 0.04 0.04 0.04 0.08 c-0.04 0.04 -0.08 0.08 -0.12 0.08 z M16.48 21.6 l0 -0.08 c0 -0.04 0.04 -0.04 0.08 -0.04 l0.04 0.04 l-0.04 0.04 z M9.64 20.2 l0.04 -0.08 c0 -0.04 0 -0.08 -0.04 -0.08 s-0.08 0 -0.08 0.08 z M11.24 20.52 c0.04 0 0.04 -0.04 0.04 -0.08 l-0.04 0 l-0.04 0.04 l0 0.04 l0.04 0 z M18.96 22.56 l0.08 -0.04 l-0.04 -0.08 s-0.04 0 -0.04 0.04 l0 0.08 z M9.36 22.68 c0 0 0.12 -0.16 0.24 -0.4 c0.12 -0.2 0.28 -0.44 0.36 -0.52 l0.12 -0.24 l0 -0.04 c0 -0.04 0 -0.04 0.04 -0.04 c0.08 0 0.4 -0.72 0.4 -0.88 l0 -0.04 c-0.04 0 -0.12 0.12 -0.24 0.32 l-0.12 0.28 c-0.08 0.16 -0.16 0.24 -0.16 0.24 c-0.04 0 -0.08 0.04 -0.12 0.12 c0 0.08 -0.08 0.24 -0.2 0.36 c-0.12 0.24 -0.32 0.68 -0.32 0.8 l0 0.04 z M9.4 20.6 l0.12 -0.16 l-0.04 -0.08 s0 -0.04 -0.04 -0.04 c0 0 -0.04 0.04 -0.04 0.12 l0 0.16 z M9.84 20.56 c0.04 0 0.08 0 0.08 -0.04 l-0.08 -0.04 l-0.04 0 z M9.64 21.04 l0 -0.04 c0 -0.04 -0.04 -0.04 -0.04 -0.04 l-0.08 0.04 z M16.36 22.64 l-0.04 0 l0 -0.04 l0.04 -0.08 l0.04 0.04 s0 0.08 -0.04 0.08 z M9.12 21.2 c0.04 0 0.04 -0.04 0.08 -0.16 l0 -0.16 l-0.08 0.04 l-0.08 0.2 c0.04 0.08 0.04 0.08 0.08 0.08 z M10.76 21.64 l0.04 -0.04 c0.08 -0.04 0.08 -0.08 0.08 -0.12 l-0.08 0 c-0.04 0 -0.08 0.04 -0.08 0.08 l0 0.04 c0 0.04 0 0.04 0.04 0.04 z M8.76 21.6 c0.04 0 0.08 0 0.08 -0.04 l-0.04 -0.12 c-0.08 0 -0.12 0.04 -0.12 0.08 s0.04 0.08 0.08 0.08 z M16 23.96 l-0.04 -0.04 l0.04 -0.04 c0.04 -0.04 0.08 -0.04 0.12 -0.04 l-0.04 0.08 z M8.4 22.36 l0.2 -0.12 l-0.08 -0.04 l-0.08 0 l-0.08 0.04 c0 0.08 0 0.12 0.04 0.12 z M10.12 22.76 c0.04 0 0.08 0 0.12 -0.04 l0 -0.08 l-0.08 0.04 z M8.28 22.64 c0.04 0 0.08 -0.04 0.08 -0.08 l-0.08 -0.16 l-0.04 0.12 c0 0.08 0 0.12 0.04 0.12 z M8.72 23.88 l0.12 -0.16 l0.2 -0.4 c0 -0.12 0.08 -0.24 0.16 -0.28 s0.16 -0.12 0.16 -0.2 l0 -0.04 c0 -0.04 0 -0.04 -0.04 -0.04 l-0.04 0 c-0.04 0 -0.12 0.08 -0.2 0.2 l-0.28 0.4 c-0.08 0.12 -0.12 0.32 -0.12 0.4 s0 0.12 0.04 0.12 z M9.8 22.96 l0.04 -0.04 l-0.04 -0.08 c-0.04 0 -0.04 0.04 -0.04 0.08 l0 0.04 l0.04 0 z M10.04 23.2 l0.04 -0.08 l0 -0.12 c-0.04 0 -0.04 0.04 -0.04 0.08 l0 0.12 z M18.56 25.16 l0 -0.12 c-0.04 0 -0.04 0 -0.04 0.04 l0 0.04 z M9.8 23.4 c0.04 0 0.08 -0.04 0.12 -0.08 c0 -0.04 0 -0.08 -0.04 -0.08 l-0.12 0.12 z M23.32 26.439999999999998 l0.04 -0.04 c0 -0.04 -0.04 -0.04 -0.04 -0.04 l-0.08 0.04 z M7.96 22.92 c0.04 0 0.04 -0.04 0.04 -0.08 l-0.04 0 l-0.04 0.08 l0.04 0 z M22.64 26.48 l0.2 -0.08 l-0.08 -0.04 l-0.4 0.04 z M8.44 23.4 c0.08 0 0.12 -0.04 0.12 -0.08 s-0.04 -0.08 -0.08 -0.08 s-0.08 0.04 -0.08 0.08 l0 0.08 l0.04 0 z M18.44 25.8 c0.04 0 0.08 -0.08 0.12 -0.12 c0 -0.08 -0.04 -0.12 -0.08 -0.12 l-0.04 0 l-0.08 0.04 l-0.04 0.12 c0 0.04 0.04 0.08 0.08 0.08 l0.04 0 z M22.8 26.759999999999998 l0.08 -0.04 l0.04 -0.08 c-0.04 0 -0.08 0 -0.12 0.04 l0 0.08 z M22.2 26.8 l0.08 -0.04 l-0.08 -0.04 l-0.04 0 z M23.52 27.240000000000002 l-0.04 -0.04 l0.08 -0.04 l0.04 0.04 c0 0.04 0 0.04 -0.08 0.04 z M8.04 23.8 l0.04 -0.08 l-0.04 -0.04 c-0.04 0 -0.04 0 -0.04 0.04 c0 0.08 0 0.08 0.04 0.08 z M9.44 24.2 c0.04 0 0.04 -0.08 0.04 -0.12 l0 -0.04 c-0.04 0 -0.04 0 -0.04 0.04 l0 0.12 z M22.92 27.240000000000002 l-0.04 0 c-0.04 0 -0.04 -0.04 -0.04 -0.04 l0.04 -0.04 l0.08 0.04 c0 0.04 0 0.04 -0.04 0.04 z M21.92 27.2 l0 -0.16 c0 -0.04 -0.04 -0.08 -0.08 -0.08 l-0.2 0 c-0.12 0.04 -0.2 0.08 -0.2 0.12 c0 0.08 0.28 0.12 0.4 0.12 l0.08 0 z M9.32 24.4 c0.04 0 0.04 0 0.04 -0.04 l0 -0.08 c-0.04 0 -0.08 0 -0.12 0.04 c0 0.04 0 0.08 0.04 0.08 l0.04 0 z M22.24 27.4 l0.16 -0.04 l0.04 -0.04 l-0.16 -0.04 c-0.04 0 -0.12 0 -0.12 0.04 s0.04 0.08 0.08 0.08 z M21.08 27.04 l0 -0.04 l-0.12 0 l0.08 0.04 l0.04 0 z M23 27.6 l-0.16 -0.08 l0.2 -0.04 l0.2 0.04 c0.04 0 0.04 0.04 0.04 0.04 c-0.04 0.04 -0.16 0.04 -0.28 0.04 z M15.68 25.92 l0.12 -0.04 c0 -0.04 -0.04 -0.04 -0.12 -0.08 c-0.04 0 -0.12 0.04 -0.12 0.08 s0.04 0.04 0.12 0.04 z M20.52 27.08 c0.04 -0.04 0.04 -0.08 0.04 -0.12 l-0.04 0 l-0.04 0.04 c0 0.04 0 0.08 0.04 0.08 z M7.68 25.64 c0.08 0 0.12 -0.08 0.16 -0.2 s0.12 -0.24 0.16 -0.28 l0.28 -0.48 l0.16 -0.4 l-0.04 -0.08 c-0.04 0 -0.12 0.04 -0.12 0.12 l-0.24 0.4 c-0.16 0.2 -0.24 0.36 -0.24 0.48 c0 0.16 -0.04 0.24 -0.08 0.28 c-0.08 0.04 -0.12 0.08 -0.12 0.12 z M21 27.28 c0.04 0 0.08 -0.04 0.08 -0.08 l0 -0.08 c-0.04 0 -0.08 0.04 -0.12 0.08 l-0.04 0.04 z M19.8 27.16 c0.04 0 0.12 0 0.16 -0.04 l0 -0.04 c0 -0.04 0 -0.04 -0.04 -0.04 l-0.04 0 l-0.08 0.04 l-0.04 0.04 z M7.32 24.36 c0.08 0 0.16 -0.04 0.16 -0.12 l0 -0.08 s-0.04 0 -0.04 0.04 l-0.16 0.08 z M20.88 27.439999999999998 c0 0 -0.04 -0.08 -0.08 -0.08 c0 -0.04 -0.04 -0.04 -0.04 -0.04 s-0.04 0 -0.04 0.04 s0.04 0.08 0.08 0.08 l0.08 0 z M9 24.8 c0.04 -0.04 0.04 -0.08 0.04 -0.12 l-0.08 0.04 c0 0.08 0.04 0.08 0.04 0.08 z M13.72 25.8 l-0.24 0 l0.04 -0.04 l0.08 -0.04 l0.08 0.04 z M12.56 25.84 c-0.04 0 -0.08 0 -0.08 -0.04 l0.12 -0.04 l0.08 0 l0 0.04 c0 0.04 -0.08 0.04 -0.12 0.04 z M22.04 28.08 l-0.08 0 l0.04 -0.04 c0.04 -0.04 0.08 -0.04 0.12 -0.04 l0.04 0 c0 0.04 -0.04 0.08 -0.12 0.08 z M7.52 24.8 l0.08 -0.04 c0 -0.04 -0.04 -0.04 -0.04 -0.04 l-0.08 0 z M6.92 24.8 l0.12 -0.04 l0 -0.04 l-0.04 -0.08 c-0.04 0 -0.08 0.04 -0.08 0.08 l0 0.08 z M20.52 27.84 l-0.16 -0.04 l0.04 -0.04 l0.08 0 z M11.6 25.92 l-0.08 0 l0.04 -0.08 l0.16 0 c0 0.04 -0.04 0.04 -0.12 0.08 z M8.72 25.36 l0.04 -0.08 l0 -0.12 l-0.04 0.08 l0 0.12 z M19.76 27.96 l0.2 -0.04 l0.08 -0.04 l0 -0.04 l-0.16 0 c-0.12 0 -0.2 0.04 -0.2 0.04 l0 0.04 c0 0.04 0 0.04 0.08 0.04 z M11.24 25.96 c-0.08 -0.04 -0.12 -0.04 -0.12 -0.08 l0.2 -0.04 l0.04 0.04 c0 0.04 -0.08 0.08 -0.12 0.08 z M18.6 27.880000000000003 l0.12 -0.12 l-0.04 -0.04 c-0.04 0 -0.08 0.04 -0.12 0.08 c0 0.04 0 0.08 0.04 0.08 z M18.92 27.92 l0 -0.04 l-0.12 0 l0.08 0.04 l0.04 0 z M10.28 26.04 c0.08 0 0.08 0 0.08 -0.04 l-0.04 -0.04 l-0.08 0 z M19.88 28.36 l-0.04 0 l0 -0.04 c0 -0.04 0 -0.08 0.04 -0.08 l0 0.12 z M7 25.72 l0.08 -0.04 l0.04 -0.04 l-0.08 -0.04 c-0.04 0 -0.08 0 -0.08 0.04 s0 0.08 0.04 0.08 z M7.52 25.96 l0 -0.08 l-0.04 0 l0 0.08 l0.04 0 z M15.48 27.92 c0.08 0 0.12 0 0.12 -0.04 s-0.04 -0.04 -0.08 -0.08 l-0.2 0.04 c0 0.04 0.04 0.04 0.16 0.08 z M14.72 27.759999999999998 l0.04 -0.04 c0 -0.04 -0.04 -0.04 -0.04 -0.04 l-0.08 0.04 z M14.52 27.759999999999998 l0.04 -0.08 l-0.04 -0.04 s-0.04 0 -0.04 0.04 c0 0.08 0 0.08 0.04 0.08 z M15.08 27.92 l0.08 -0.04 l-0.08 -0.04 c-0.04 0 -0.08 0 -0.12 0.04 l-0.04 0.04 l0.16 0 z M15.36 28.6 l0 -0.04 c-0.04 -0.04 -0.08 -0.04 -0.12 -0.04 c-0.16 0 -0.2 0 -0.2 0.04 l0.08 0.04 l0.24 0 z M13.92 28.64 l0.08 -0.04 l-0.04 -0.04 c-0.04 0 -0.16 0 -0.24 0.04 l-0.08 0.04 l0.28 0 z M13.32 28.68 c0.12 0 0.24 0 0.24 -0.04 l-0.24 -0.08 c-0.12 0 -0.2 0 -0.24 0.04 z M12.04 28.96 l0 -0.04 s0 -0.04 -0.04 -0.04 l-0.08 0.04 l0.08 0.04 l0.04 0 z M15.16 29.96 l0 -0.12 c0 -0.08 0.04 -0.12 0.04 -0.12 z M7.2 28.68 c0.04 0 0.08 0 0.08 -0.04 l0 -0.04 c0 -0.04 -0.04 -0.08 -0.08 -0.08 l-0.08 -0.04 c-0.08 0 -0.12 0.04 -0.12 0.08 s0.04 0.08 0.12 0.12 l0.08 0 z M15.16 31.6 l0.04 -0.08 l-0.04 -0.04 c-0.04 0 -0.04 0 -0.04 0.04 l0 0.04 z M5.52 30 c0.08 -0.04 0.16 -0.16 0.2 -0.28 c0.08 -0.12 0.08 -0.2 0.08 -0.2 l-0.12 0.04 c-0.12 0.08 -0.24 0.24 -0.24 0.36 c0 0.04 0.04 0.08 0.08 0.08 z M4.68 29.8 c0.04 0 0.04 0 0.04 -0.04 l0 -0.04 c0 -0.04 0 -0.04 0.04 -0.04 c0.08 0 0.12 -0.04 0.12 -0.08 c0 0 0 -0.04 -0.04 -0.04 l-0.08 0.04 l-0.16 0.12 c0 0.04 0.04 0.08 0.08 0.08 z M4.44 32.32 l0.08 -0.04 c0.08 0 0.16 -0.16 0.16 -0.28 l0.24 -0.6 l0.32 -0.64 l0.28 -0.64 l-0.04 -0.04 c-0.08 0 -0.2 0.16 -0.2 0.28 l-0.52 1.2 l-0.2 0.28 l-0.04 0.12 l0.08 0.04 z M5.92 30.759999999999998 c0.04 0 0.12 -0.08 0.16 -0.12 l0.04 -0.12 c-0.04 0 -0.08 0 -0.12 0.04 c-0.08 0.04 -0.16 0.12 -0.16 0.16 s0 0.04 0.08 0.04 z M3.88 31.68 l0 -0.12 c-0.04 0 -0.04 0 -0.04 0.04 l0 0.04 z M5.04 33.04 c0.04 0 0.08 0 0.08 -0.04 s0 -0.12 -0.04 -0.16 l-0.04 0 c-0.04 0 -0.04 0 -0.04 0.08 l0 0.04 c0 0.04 0 0.08 0.04 0.08 z M4.04 33.24 c0.04 0 0.04 -0.04 0.08 -0.08 c0.08 -0.04 0.12 -0.16 0.12 -0.2 l0 -0.08 l-0.04 0 c-0.04 0 -0.12 0.12 -0.12 0.24 z M3.88 33.76 l0.12 -0.08 l0 -0.16 l-0.04 0 c-0.04 0 -0.08 0.04 -0.08 0.08 l0 0.16 z M4.48 34.04 l0 -0.04 l-0.12 0 l0.08 0.04 l0.04 0 z M3.76 34.04 c0.04 -0.04 0.04 -0.08 0.04 -0.12 l-0.08 0.04 z M3.56 34.480000000000004 l0.04 -0.04 c0.04 -0.04 0.08 -0.16 0.08 -0.24 l-0.04 -0.04 z M3.48 34.8 l0.04 -0.08 l-0.04 -0.08 l-0.04 0 c-0.04 0 -0.04 0 -0.04 0.04 l0 0.04 c0.04 0.04 0.04 0.08 0.08 0.08 z M3.24 35.24 c0.04 0 0.08 -0.04 0.12 -0.12 l0 -0.16 c-0.04 0 -0.08 0.04 -0.12 0.12 l-0.04 0.12 z M3.96 35.92 l0 -0.12 c-0.04 0 -0.04 0 -0.04 0.04 l0 0.04 z M3 35.96 l0.08 -0.04 l-0.04 -0.32 c-0.04 0 -0.04 0.04 -0.08 0.12 c0 0.12 0 0.2 0.04 0.24 z M3.68 36.8 l0.04 -0.04 l-0.12 -0.12 l0 0.04 c0.04 0.08 0.04 0.12 0.08 0.12 z M29.8 36.56 l-0.12 -0.04 c0 -0.04 -0.04 -0.08 -0.08 -0.08 l-0.16 0.08 c0 0.04 -0.04 0.04 -0.08 0.04 l-0.08 -0.04 l-0.32 -0.08 l-0.12 -0.08 l-0.16 0.12 l0 -0.04 c0 -0.04 -0.04 -0.04 -0.12 -0.08 l-0.4 -0.12 c-0.08 0 -0.24 -0.08 -0.28 -0.16 c-0.04 -0.04 -0.12 -0.04 -0.2 -0.08 l-0.28 -0.08 c-0.16 -0.12 -0.16 -0.16 -0.28 -0.48 c-0.12 -0.4 -0.24 -1.12 -0.24 -1.56 l0.04 -0.36 l-0.04 -0.12 l0 -0.16 l0.04 -0.04 l-0.04 -0.08 l-0.04 -0.36 l0.04 -0.2 l0.08 -0.2 l-0.16 -0.12 l0.04 -0.08 c0.04 -0.04 0.04 -0.08 0.04 -0.12 l-0.04 -0.04 l0.04 -0.04 l-0.04 -0.24 l0.04 -0.12 l0 -0.24 c0 -0.04 0.04 -0.08 0.08 -0.08 l0.08 -0.08 l-0.04 -0.04 l-0.08 0.04 l-0.04 -0.08 l0 -0.24 l0.04 -0.04 l-0.04 -0.12 l0 -0.44 l0.04 -0.24 l-0.04 -0.04 l0 -0.36 l0.04 -0.08 l0.04 -0.04 l-0.08 -0.2 l0.12 -0.28 c0 -0.04 0 -0.08 -0.04 -0.08 s-0.04 -0.04 -0.04 -0.12 l0.08 -0.32 c-0.04 -0.04 -0.08 -0.2 -0.08 -0.36 l0.08 -0.28 l-0.04 -0.04 l0.04 -0.16 c0.04 -0.04 0.08 -0.08 0.08 -0.2 l-0.04 -0.28 c-0.04 -0.08 -0.04 -0.16 -0.04 -0.2 l0 -0.08 l-0.04 -0.12 c0 -0.08 0.04 -0.16 0.12 -0.16 l0.04 -0.04 l-0.08 -0.16 l0.08 -0.08 l-0.04 0.08 l0.08 -0.04 l0.04 0.08 l0.04 -0.04 l0 -0.08 l-0.2 -0.04 s-0.04 0 -0.04 -0.04 l0 -0.08 c0.04 0 0.04 -0.04 0.04 -0.08 s0 -0.12 0.04 -0.16 l0 -0.24 l0.08 0.08 l0 -0.08 c0 -0.04 -0.04 -0.08 -0.08 -0.08 l-0.04 -0.08 l0.12 -0.4 l-0.04 0.04 c-0.04 0 -0.04 -0.04 -0.04 -0.08 l0 -0.08 c0.04 -0.04 0.08 -0.12 0.08 -0.24 l-0.04 -0.48 c0.04 -0.04 0.04 -0.12 0.04 -0.2 c0 -0.12 0.04 -0.2 0.08 -0.24 l0.08 -0.12 l-0.04 0 c-0.04 0 -0.08 -0.04 -0.08 -0.08 l0.04 -0.12 c0.04 -0.04 0.08 -0.12 0.08 -0.2 s-0.04 -0.16 -0.08 -0.16 l-0.04 -0.04 l0.04 -0.04 c0.08 -0.04 0.16 -0.16 0.16 -0.32 l-0.04 -0.16 l0 -0.24 l0.04 -0.08 l-0.04 -0.16 l0.12 -0.32 c-0.04 0 -0.08 -0.04 -0.08 -0.08 l0.04 -0.4 c0 -0.04 0.04 -0.04 0.08 -0.08 l0.04 -0.04 l0 -0.2 l-0.16 0.08 l0.04 -0.08 c0.04 -0.04 0.04 -0.12 0.04 -0.2 c0 -0.04 0 -0.08 0.04 -0.08 l0 -0.16 c0 -0.04 0 -0.16 0.04 -0.28 l-0.04 -0.36 c0.04 -0.16 0.08 -0.32 0.08 -0.44 l0 -0.08 c0 -0.04 0 -0.16 0.04 -0.24 l0 -0.4 c0.04 -0.04 0.04 -0.2 0.04 -0.36 l0.04 -0.36 c0.04 0 0.04 -0.08 0.04 -0.12 l0 -0.04 l0.04 -0.12 c0.04 -0.04 0.04 -0.08 0.04 -0.16 l0 -0.16 c0 -0.16 0.04 -0.36 0.08 -0.4 c0 -0.04 0 -0.08 -0.04 -0.08 l0 -0.16 c0 -0.24 0 -0.64 0.04 -0.72 c0.04 -0.04 0.04 -0.12 0.04 -0.24 c0 -0.16 0 -0.28 -0.04 -0.32 l0.04 0 c0.04 0 0.04 0 0.04 -0.04 l0 -0.2 l0.04 -0.16 l-0.08 -0.32 l0.04 -0.04 l0 -0.72 l-0.04 -0.76 l-0.08 -0.4 l-0.04 -0.28 c0 -0.04 0 -0.08 0.04 -0.12 l0.16 -0.08 l0.32 -0.04 c0.16 0 0.36 0 0.48 0.04 s0.28 0.04 0.36 0.08 c0.08 0 0.2 0 0.24 0.04 l0.16 0.04 c0.08 0 0.16 0.04 0.24 0.12 l0.04 0.12 c-0.04 0 -0.04 0 -0.04 0.04 l0.12 0 c0.12 0 0.24 0.08 0.28 0.2 c0 0.04 0.04 0.12 0.08 0.12 l0.12 0.16 c0 0.08 0.04 0.12 0.12 0.12 s0.08 0.04 0.16 0.4 l0.04 0.48 c0 0.08 0 0.16 0.04 0.24 l0.04 0.12 l-0.16 0.96 l0.04 0.12 l-0.08 0 l0.08 0.12 l-0.04 0.08 c-0.04 0.04 -0.08 0.48 -0.08 0.52 l0.16 -0.04 l0 0.16 l-0.08 0 c0 -0.04 -0.04 -0.04 -0.08 -0.04 c0 0.04 0.04 0.08 0.08 0.12 l0.08 0.08 l-0.08 0.08 l-0.04 0.12 l0.04 0.12 l-0.04 0.04 c-0.08 0 -0.12 0.12 -0.12 0.2 l0.04 0.2 l0.04 0.12 l-0.04 0.08 c-0.08 0.04 -0.08 0.08 -0.08 0.12 s0 0.08 0.04 0.08 c0.04 0.04 0.08 0.04 0.08 0.08 l-0.08 0.4 s0 0.04 -0.04 0.04 s-0.04 0.04 -0.04 0.08 s0 0.12 -0.04 0.16 l-0.04 0.08 l0.08 0.12 l-0.16 0.08 l0.04 0 l0.04 0.04 l-0.08 0.2 c0 0.04 0.04 0.04 0.12 0.04 l0.08 -0.04 l-0.04 0.12 c-0.08 0.12 -0.12 0.2 -0.12 0.28 c0 0 0 0.04 0.04 0.04 s0.08 0.04 0.08 0.08 l-0.08 0.16 c0 0.04 0 0.08 -0.04 0.08 l0 0.12 c0.04 0.04 0.04 0.16 0.04 0.2 c-0.04 0.04 -0.04 0.12 -0.04 0.16 l0 0.08 c-0.04 0 -0.08 0.04 -0.12 0.08 l-0.04 0.08 l0.16 0.08 l-0.08 0.04 c-0.04 0.04 -0.08 0.04 -0.08 0.08 l0.04 0.04 c0.04 0 0.08 0.04 0.08 0.12 l-0.04 0.08 l-0.04 0 c-0.04 0 -0.04 0.04 -0.04 0.04 c0 0.04 0 0.04 0.04 0.04 s0.08 0.04 0.08 0.08 l-0.12 0.16 l0.04 0.08 c0.04 0.08 0.04 0.16 0.04 0.2 c-0.04 0.04 -0.04 0.12 -0.04 0.16 l-0.04 0.04 l-0.08 -0.16 l0 0.12 c0 0.04 0 0.12 0.04 0.16 s0.08 0.08 0.08 0.12 l-0.04 0.04 l0.04 0.08 l-0.08 0.08 c-0.08 0.04 -0.08 0.08 -0.08 0.16 l0 0.2 l-0.08 0.12 c0.04 0 0.04 0.04 0.04 0.12 l0 0.08 c0.04 -0.04 0.04 -0.08 0.04 -0.12 s0 -0.04 0.04 -0.04 s0.04 0.08 0.04 0.16 c-0.04 0.04 -0.08 0.08 -0.12 0.08 l-0.04 0 c0 0.04 0.04 0.04 0.08 0.08 c0.08 0 0.08 0.04 0.08 0.12 c-0.04 0.12 -0.04 0.16 -0.08 0.16 l-0.08 -0.04 l0.04 0.08 l-0.04 0.04 l-0.04 0.08 l-0.04 0.16 l-0.08 0.16 l0.04 0.04 l0.04 -0.12 c0.04 0 0.04 0.04 0.04 0.12 l-0.04 0.2 l0.08 0.08 l0.04 0.08 c0 0.04 0 0.08 -0.08 0.16 l-0.04 0.08 l0.12 -0.04 c0 0.04 -0.08 0.96 -0.12 1.04 c0 0.04 -0.04 0.08 -0.08 0.08 l0.08 0.2 c0 0.04 -0.04 0.08 -0.08 0.08 c-0.04 0.04 -0.08 0.04 -0.08 0.08 l0.08 0.04 c0.04 0 0.04 0.04 0.04 0.08 c0 0.08 -0.04 0.24 -0.08 0.28 c-0.04 0.08 -0.08 0.16 -0.08 0.24 c0 0.04 0 0.08 0.04 0.08 l0.04 0.04 l-0.04 -0.16 l0.04 -0.04 c0.04 0 0.04 0.08 0.04 0.4 c-0.04 0.16 -0.04 0.36 -0.04 0.4 l0 0.12 c0 0.12 -0.04 0.28 -0.08 0.32 l-0.04 0.08 c0 0.04 0 0.04 0.04 0.04 c0.04 0.04 0.08 0.12 0.08 0.28 l0 0.2 c-0.04 0.12 -0.04 0.28 -0.04 0.36 l0.04 0.36 l-0.04 0.32 l-0.04 0.08 l0.04 0.08 c0 0.24 -0.04 0.64 -0.08 0.64 l-0.04 0.04 l0.08 0.16 l-0.08 0 c-0.04 0 -0.04 0.04 -0.04 0.04 c0 0.04 0.04 0.04 0.04 0.04 l0.04 0 c0.04 0 0.04 0 0.04 0.04 l-0.04 0.08 c-0.04 0.04 -0.08 0.08 -0.08 0.12 l0 0.04 l0.08 -0.04 l0.04 0.04 l0 0.08 c0 0.12 -0.04 0.32 -0.08 0.32 l-0.04 0 l0 0.04 l0.08 0.04 l0.04 -0.04 l0 0.08 l-0.08 0.04 c-0.08 0 -0.08 0.04 -0.08 0.16 c0.04 0.08 0.08 0.12 0.12 0.12 l0.04 0 l0 0.12 l0.08 0.4 c-0.04 0 -0.04 0.04 -0.04 0.08 l0.04 0.2 c0.04 0.04 0.08 0.08 0.12 0.08 l0.04 0 c0.08 0 0.16 0.08 0.16 0.12 l0 0.12 c0 0.04 0.04 0.04 0.08 0.04 c0.08 0 0.12 0 0.12 0.04 l0 0.04 c0 0.04 -0.04 0.04 -0.08 0.04 l-0.08 0 l-0.04 -0.04 l0.04 0.12 l-0.08 0.12 c-0.12 0.04 -0.24 0.24 -0.24 0.32 l0.04 0.04 l0.04 0 c0.04 0 0.04 -0.04 0.04 -0.08 l-0.04 -0.08 l0.08 -0.04 l0 0.04 l0.04 0.08 c0.04 0 0.04 -0.04 0.04 -0.12 l0 -0.08 l0.16 0.04 l-0.08 -0.12 l0.04 -0.04 c0.04 0 0.08 0.08 0.08 0.16 l0.04 0.08 l-0.04 0.2 c0.04 0 0.08 0 0.08 -0.08 c0.04 -0.08 0.04 -0.08 0.08 -0.08 s0.04 0 0.04 0.04 l-0.04 0.12 c0 0.04 0.04 0.08 0.08 0.08 l0.04 0 l0 0.04 s0 0.04 -0.08 0.08 l-0.04 0 l0.04 0.04 c0.04 0 0.08 0.04 0.08 0.08 s0 0.04 -0.04 0.04 l0 0.08 c0 0.04 -0.04 0.04 -0.04 0.04 c-0.04 0 -0.04 0 -0.04 0.04 s0 0.04 0.04 0.04 l0.12 -0.12 l0.04 0.04 l0.12 0 c0 0.04 0 0.08 -0.04 0.08 c-0.12 0 -0.16 0.04 -0.16 0.08 s0 0.12 -0.04 0.2 s-0.04 0.16 -0.04 0.24 l0 0.16 s0 0.04 -0.04 0.04 c-0.08 0 -0.08 0.08 -0.12 0.32 l0 0.08 c0.04 0 0.04 -0.04 0.08 -0.08 l0.08 -0.08 c0.04 0 0.04 0 0.04 0.04 l-0.08 0.32 c0 0.04 0 0.04 0.04 0.04 l0.08 0.04 l-0.28 0.56 c-0.08 0.08 -0.16 0.2 -0.16 0.24 c0 0.16 -0.12 0.2 -0.28 0.2 z M30.56 13.8 l0 -0.12 l-0.04 0 z M30.48 18.12 l0.04 -0.04 l0 -0.04 c-0.04 0 -0.04 0.04 -0.04 0.04 l0 0.04 z M27.56 23.76 c0.04 0 0.04 0 0.04 -0.04 l-0.04 -0.04 l-0.04 0.08 l0.04 0 z M29.96 24.28 l-0.04 -0.04 c0 -0.04 0 -0.08 0.04 -0.08 l0.08 -0.04 z M29.68 26.439999999999998 l0.08 -0.04 l0 -0.12 c-0.04 0 -0.08 0.08 -0.08 0.16 z M29.68 27.119999999999997 c0.04 0 0.04 -0.08 0.04 -0.12 l0 -0.08 c-0.04 0 -0.04 0 -0.04 0.04 l-0.04 0.08 z M29.16 27.28 l-0.04 -0.08 l-0.04 -0.04 l0.04 0.04 c0 0.04 0 0.08 0.04 0.08 z M27.48 28.560000000000002 l0.04 -0.08 l0 -0.12 c-0.04 0.04 -0.04 0.08 -0.04 0.12 l0 0.08 z M29.6 29.4 l0.04 -0.04 l0 -0.08 s-0.04 0 -0.04 0.08 l0 0.04 z M29.6 29.560000000000002 c0 0 0.04 0 0.04 -0.04 l0 -0.04 l-0.08 0.08 l0.04 0 z M29.6 29.8 c0.04 0 0.04 -0.04 0.04 -0.08 s0 -0.04 -0.04 -0.04 l-0.04 0 l0 0.08 z M26.96 30.6 c0.04 0 0.04 0 0.04 -0.04 l-0.08 -0.04 l-0.04 0 l0.04 0.04 c0 0.04 0.04 0.04 0.04 0.04 z M29.6 30.240000000000002 l0.04 -0.04 l0 -0.08 c0 -0.04 0 -0.04 -0.04 -0.04 l-0.04 0.04 z M29.28 31.759999999999998 l0.04 -0.08 l-0.04 -0.04 l-0.04 0.08 z M29.56 32 l0 -0.04 c0.04 0 0.04 -0.08 0.04 -0.08 l0 -0.04 l-0.04 0.04 c-0.04 0.04 -0.04 0.12 -0.04 0.12 l0.04 0 z M30.2 32.68 l-0.08 -0.04 c-0.04 -0.04 -0.08 -0.04 -0.08 -0.12 l0 -0.04 l0.08 -0.16 l-0.04 -0.04 c0 -0.04 0 -0.08 0.04 -0.08 l0.12 0.16 l0.04 0.12 l-0.12 0.12 z M29.92 32.56 l-0.08 -0.04 l0 -0.08 z M29.8 32.76 l0.04 -0.08 l-0.04 -0.04 l-0.04 0.08 z M30.68 33.08 l0 -0.08 c0 -0.08 0.04 -0.12 0.08 -0.12 l0 0.04 c0 0.04 0 0.08 -0.04 0.12 z M30.52 33.480000000000004 l-0.04 -0.12 l0.04 0.04 l0 0.08 z M30.12 33.72 c0.04 0 0.04 0 0.04 -0.04 l0 -0.16 l-0.08 0.12 z M30.04 34.12 l0.04 -0.04 l-0.08 -0.04 z M30.28 34.519999999999996 c0.04 0 0.12 -0.04 0.12 -0.12 c-0.04 0 -0.04 -0.04 -0.04 -0.04 l-0.08 0.12 l-0.08 0 z M30.08 34.64 l0 -0.08 c-0.04 0 -0.04 0.04 -0.04 0.04 l0 0.04 l0.04 0 z M30.240000000000002 34.76 l0.08 -0.04 l-0.04 -0.04 c-0.04 0 -0.04 0.04 -0.04 0.08 z M30.240000000000002 35.04 l0 -0.16 l-0.04 0.04 c-0.04 0 -0.04 0.04 -0.04 0.08 s0.04 0.04 0.08 0.04 z M34.120000000000005 36.56 c-0.16 0 -0.28 0 -0.4 -0.04 c-1.08 -0.28 -2.04 -1 -2.68 -1.96 l-0.4 -0.52 c-0.2 -0.2 -0.68 -1.36 -0.72 -1.88 l-0.04 -1.28 c0 -0.2 0.16 -0.92 0.24 -1.08 l0.04 -0.24 l0.12 -0.56 c0.08 -0.2 0.12 -0.44 0.12 -0.44 l-0.04 -0.08 c0 -0.16 0.16 -0.56 0.44 -1 c0.16 -0.32 0.24 -0.44 0.28 -0.44 l0 0.12 c0 0.12 0 0.12 0.04 0.12 c0.04 -0.04 0.08 -0.16 0.08 -0.24 l0 -0.04 c0 -0.24 0.24 -0.92 0.4 -1.16 c0.04 -0.04 0.08 -0.08 0.08 -0.12 l0 -0.04 c0 -0.04 0.04 -0.12 0.12 -0.16 c0.24 -0.36 1.04 -1.72 1.04 -1.8 c0 -0.12 0.36 -0.48 0.68 -0.6 c0.16 -0.08 0.24 -0.08 0.32 -0.08 l0.32 0.08 l0.72 0.36 l0.36 0.28 c0.36 -0.44 0.32 -0.6 1 -0.84 c0.2 -0.12 0.32 -0.16 0.44 -0.16 c0.16 0 0.32 0 0.6 0.04 c0.84 0.08 1.56 0.44 2.16 0.96 c1.32 1.2 1.48 1.36 1.8 2.24 c0.2 0.52 0.4 1.64 0.4 2.08 l0 0.16 c-0.16 0.64 -0.44 1.36 -0.56 1.52 l-0.2 0.36 c-0.08 0.2 -0.52 0.96 -0.72 1.2 l-0.64 1 c-0.12 0.12 -0.2 0.28 -0.2 0.28 c0 0.04 -0.08 0.08 -0.16 0.16 c-0.08 0.04 -0.16 0.12 -0.16 0.16 s-0.08 0.16 -0.16 0.24 l-0.48 0.64 c-0.2 0.2 -0.36 0.4 -0.4 0.4 s-0.04 0.04 -0.04 0.08 c0 0.08 -0.04 0.16 -0.12 0.16 l-0.12 0.08 l0 0.04 c0 0.04 -0.04 0.08 -0.08 0.08 s-0.2 0.08 -0.28 0.24 l-0.64 0.6 l-0.4 0.28 l-0.56 0.36 c-0.28 0.24 -1.04 0.44 -1.6 0.44 z M32.32 34.08 c0.24 0 0.4 0 0.72 -0.08 c0.12 0 0.32 -0.08 0.48 -0.16 l0.8 -0.4 c0.12 -0.08 0.36 -0.28 0.56 -0.36 c0.44 -0.24 0.6 -0.4 1.2 -1.08 l0.64 -0.64 c0.08 -0.04 0.12 -0.16 0.12 -0.2 s0.04 -0.08 0.08 -0.08 s0.2 -0.2 0.36 -0.4 c0.12 -0.24 0.36 -0.56 0.48 -0.72 l1.12 -1.68 l0.16 -0.32 c0 -0.04 0.04 -0.2 0.12 -0.32 c0.36 -0.6 0.56 -1.28 0.56 -1.76 c0 -0.2 -0.04 -0.36 -0.16 -0.44 c-0.28 -0.2 -0.8 -0.32 -1.28 -0.32 c-0.28 0.04 -0.52 0.08 -0.68 0.16 c-0.12 0.08 -0.28 0.12 -0.32 0.12 c0 0 -0.2 0.16 -0.44 0.28 c-0.2 0.16 -0.4 0.32 -0.44 0.32 s-0.08 0.12 -0.08 0.24 c0 0.2 -0.04 0.28 -0.08 0.28 s-0.08 -0.04 -0.08 -0.12 c-0.04 -0.12 -0.04 -0.2 -0.12 -0.2 l-0.16 0.04 c-0.24 0 -0.28 -0.04 -0.44 -0.2 c-0.08 -0.16 -0.16 -0.2 -0.28 -0.2 s-0.28 0.08 -0.48 0.32 c-0.12 0.16 -0.28 0.28 -0.32 0.28 l-0.04 0 l-0.08 0.16 c-0.04 0.12 -0.08 0.2 -0.16 0.2 l-0.08 0.04 l0 0.04 c0 0.32 -0.08 0.48 -0.32 0.6 c-0.16 0.08 -0.2 0.12 -0.2 0.24 l0 0.04 c0 0.04 -0.04 0.2 -0.12 0.28 l-0.16 0.32 c0 0.04 -0.04 0.12 -0.12 0.16 c-0.04 0.04 -0.08 0.08 -0.08 0.12 l0.04 0.2 c0 0.12 -0.04 0.2 -0.12 0.32 c-0.12 0.16 -0.2 0.28 -0.2 0.32 l0 0.04 c0 0.08 -0.04 0.32 -0.24 0.92 c-0.2 0.68 -0.36 1.28 -0.36 1.52 l-0.04 0.24 c-0.04 0.16 -0.08 0.72 -0.08 1.12 l0 0.4 c0.04 0.32 0.08 0.32 0.32 0.36 z M31.560000000000002 26.36 c0.08 0 0.08 -0.04 0.08 -0.08 l-0.04 -0.08 l-0.08 0.08 z M30.52 28.96 c0 -0.04 0 -0.08 -0.04 -0.12 l-0.04 0.04 c0.04 0.08 0.04 0.08 0.08 0.08 z M30.400000000000002 29.240000000000002 l0.08 -0.04 c0 -0.04 0 -0.08 -0.04 -0.08 s-0.08 0.04 -0.08 0.08 z M52.84 38.04 l-0.04 -0.04 c-0.04 -0.04 -0.04 -0.08 -0.04 -0.16 l0 -0.04 l-0.04 0 l-0.08 0.04 l0 -0.08 c0 -0.04 -0.08 -0.12 -0.16 -0.12 l-0.08 0.04 l0 0.04 l0.08 0.16 l-0.16 -0.08 l-0.28 -0.24 c-0.04 -0.04 -0.08 -0.08 -0.12 -0.08 l-0.6 -0.28 c-0.16 -0.08 -0.24 -0.12 -0.28 -0.2 c0 -0.04 -0.04 -0.12 -0.12 -0.2 s-0.12 -0.24 -0.12 -0.44 l0.04 -0.28 l0.04 -0.6 l-0.04 -0.68 l0.04 -0.08 l0.04 -0.04 l-0.04 -0.04 s0 -0.08 0.04 -0.12 l0.04 -0.08 l-0.04 -0.04 c-0.04 -0.04 -0.08 -0.04 -0.08 -0.08 l0.12 -0.24 c0.04 0 0.04 -0.04 0.04 -0.12 c0 -0.04 0 -0.12 0.04 -0.2 s0.04 -0.16 0.04 -0.2 l0.08 -0.16 c0 -0.04 -0.04 -0.04 -0.08 -0.04 l-0.04 0.04 c-0.04 0 -0.04 -0.04 -0.04 -0.12 c0 -0.04 0.04 -0.12 0.08 -0.12 l0 -0.32 l0.08 -0.64 l0 -0.12 s0 -0.08 0.04 -0.12 l0.04 -0.12 l-0.04 -0.04 l0.04 -0.08 l0.08 -0.28 l-0.04 -0.24 l0.04 -0.28 l0.08 -0.04 l0.04 0.12 l0 0.16 l0.04 -0.2 l-0.04 -0.2 l-0.04 -0.12 l0.08 -0.32 l0 0.4 c0.04 -0.24 0.08 -0.2 0.08 -0.44 l-0.08 -0.32 l0.12 0.04 c0.04 0 0.04 0 0.04 -0.08 l0 -0.08 c0 -0.08 0 -0.12 0.04 -0.16 c0.04 0 0.04 -0.04 0.04 -0.08 l0.12 -0.4 l-0.04 -0.04 l-0.16 0.08 l-0.04 -0.08 c0 -0.08 0 -0.12 0.08 -0.12 l0.04 0 l0.04 -0.08 l0 -0.2 l-0.08 0.04 l0 -0.48 c0 -0.08 0.04 -0.24 0.12 -0.32 l0.04 -0.16 l-0.08 -0.12 l0.04 -0.04 s0.04 0 0.04 0.04 l0.04 0.08 l0.08 -0.04 l0.04 -0.08 l-0.04 -0.08 c-0.04 0 -0.04 -0.08 -0.08 -0.16 l0 -0.08 l0.04 0.04 l0.08 0.04 l0.04 -0.04 l0 -0.12 c0 -0.08 0 -0.16 -0.04 -0.16 l-0.08 0 l0.08 -0.16 c0.08 -0.04 0.12 -0.16 0.12 -0.24 l-0.04 -0.12 l-0.08 -0.04 l0.08 0.12 l-0.04 0.04 c-0.04 0 -0.04 -0.04 -0.04 -0.08 c0 -0.08 0 -0.16 0.08 -0.2 c0.04 -0.04 0.08 -0.12 0.08 -0.2 l-0.04 -0.12 c-0.04 0.16 -0.04 0.24 -0.12 0.24 c-0.04 0 -0.04 -0.04 -0.04 -0.08 l0 -0.04 c0.04 -0.04 0.04 -0.08 0.04 -0.12 l0 -0.08 c0 -0.08 0.04 -0.2 0.08 -0.2 l0.04 0 c0.08 0 0.08 -0.04 0.08 -0.16 l-0.04 -0.08 l-0.08 0.08 l-0.04 -0.04 l0.16 -0.36 l-0.04 -0.08 l-0.08 0.04 l-0.04 -0.04 l0.08 -0.28 c0 -0.16 -0.04 -0.4 -0.12 -0.72 c-0.04 -0.2 -0.04 -0.24 -0.12 -0.24 l-0.08 0 l-0.52 0.36 c-0.32 0.28 -0.48 0.4 -0.84 0.8 l-0.6 0.68 c0 0.08 -0.28 0.48 -0.32 0.48 s-0.36 0.4 -0.36 0.48 l-0.04 0.12 l-0.04 0 c0 0.08 -0.16 0.32 -0.32 0.52 c-0.08 0.12 -0.12 0.2 -0.12 0.28 c0 0.04 0 0.08 -0.04 0.08 c-0.08 0.04 -0.24 0.28 -0.24 0.36 c0 0 0 0.08 -0.04 0.12 c-0.12 0.16 -0.16 0.24 -0.16 0.28 l0 0.04 c0 0.04 -0.04 0.08 -0.08 0.08 c-0.04 0.04 -0.04 0.08 -0.04 0.12 c0 0.16 -0.08 0.28 -0.16 0.32 c-0.04 0 -0.08 0 -0.08 0.08 l0.04 0.2 c0 0.12 -0.04 0.2 -0.12 0.2 c-0.04 0 -0.08 0 -0.08 0.04 l-0.04 0.08 l0.08 -0.08 l0.04 0.04 c0 0.04 0 0.08 -0.04 0.08 s-0.04 0.04 -0.04 0.12 c0.04 0.04 0.04 0.12 0.04 0.12 c-0.04 0.04 -0.08 0.12 -0.08 0.2 s-0.08 0.2 -0.12 0.28 s-0.12 0.2 -0.12 0.28 s-0.04 0.2 -0.08 0.28 l-0.16 0.52 l-0.08 0.4 c0 0.12 0 0.24 -0.04 0.28 c-0.04 0.08 -0.16 0.68 -0.2 1 c0 0.12 0 0.24 0.04 0.28 l0.04 0.08 c0 0.04 0 0.04 -0.04 0.04 c-0.08 0 -0.12 0.08 -0.12 0.28 l-0.08 0.8 l0.04 0.4 c0 0.12 0 0.2 -0.04 0.24 c-0.04 0 -0.08 0.04 -0.08 0.08 l0.04 0.04 l0.08 -0.04 c0.04 0 0.08 0.04 0.08 0.08 c0 0.08 -0.04 0.12 -0.08 0.16 s-0.08 0.08 -0.08 0.16 l0.04 0.12 l-0.16 -0.04 c-0.08 -0.04 -0.16 -0.04 -0.2 -0.04 l-0.04 0 l-0.16 -0.08 l0 0.08 l-0.16 0.2 l0.04 0.16 c0 0.04 0 0.08 -0.04 0.08 l-0.08 -0.04 l-0.16 0 c-0.04 0 -0.08 -0.04 -0.08 -0.12 s-0.04 -0.12 -0.08 -0.16 c-0.04 0 -0.04 0.04 -0.04 0.08 l0 0.16 l0.04 0.08 c-0.04 0 -0.04 -0.04 -0.12 -0.08 l-0.08 -0.08 l0 0.12 c0 0.04 0 0.04 -0.04 0.04 l-0.08 -0.08 c-0.04 -0.04 -0.16 -0.12 -0.24 -0.12 c-0.12 -0.04 -0.24 -0.12 -0.28 -0.16 c-0.04 -0.08 -0.2 -0.16 -0.32 -0.2 c-0.08 0 -0.24 -0.08 -0.28 -0.16 s-0.12 -0.12 -0.24 -0.12 l-0.08 0 c-0.24 0 -0.36 -0.2 -0.56 -1.08 c-0.08 -0.36 -0.16 -0.56 -0.24 -0.6 l0.08 -0.2 c0.12 -0.16 0.16 -0.28 0.16 -0.44 c0 -0.4 -0.04 -0.88 -0.08 -1.2 l0.04 -1.52 l-0.04 -0.52 l0.08 -0.56 s-0.04 -0.24 -0.04 -0.52 c0.04 -0.48 0.04 -1.04 0.04 -1.32 c0 -0.08 0 -0.32 0.04 -0.56 l0 -0.72 c0 -0.2 0 -0.36 0.04 -0.4 c0 0 0 -0.08 -0.04 -0.12 l0 -0.32 l0.04 -0.2 l-0.04 -0.16 c0 -0.08 0 -0.2 0.04 -0.24 s0.04 -0.16 0.04 -0.28 l-0.04 -0.2 c0 -0.04 0 -0.04 0.04 -0.04 l0.16 0.04 l0 -0.04 c0 -0.04 -0.04 -0.12 -0.08 -0.12 c-0.04 -0.04 -0.04 -0.24 -0.04 -0.4 s0 -0.32 0.04 -0.32 l0.04 -0.04 l-0.04 -0.04 c-0.04 -0.04 -0.08 -0.08 -0.08 -0.12 l0.08 -0.48 l-0.08 -0.96 l0.04 -0.16 l0 -0.2 c0 -0.08 0 -0.2 0.04 -0.24 l0.04 -0.08 l-0.04 -0.04 c-0.04 0 -0.08 -0.12 -0.08 -0.28 l-0.04 -0.16 l0.04 -0.08 l0 -0.52 l0.04 -0.12 l-0.04 -0.08 l-0.04 -0.4 l0.04 -0.72 c0.04 -0.08 0.04 -0.16 0.04 -0.24 l0.04 -0.2 l0.08 -0.08 l-0.12 0 c-0.04 0 -0.04 -0.04 -0.08 -0.2 c0 -0.16 0 -0.28 0.04 -0.32 l0.04 -0.12 l-0.04 -0.24 l0.04 -0.44 c0 -0.08 -0.04 -0.16 -0.08 -0.16 l-0.04 -0.04 l0.12 -0.12 l-0.12 -0.12 l0.04 0 c0.04 -0.04 0.04 -0.24 0.04 -0.48 l-0.04 -0.36 l0.04 -0.2 l0.04 -0.04 l-0.08 0.04 l-0.04 -0.04 c0 -0.04 0 -0.12 0.04 -0.16 l0.04 -0.08 l-0.08 0.08 l-0.04 -0.08 l0.12 -0.24 l-0.04 0 c-0.04 0 -0.08 -0.04 -0.08 -0.12 l0 -0.08 c0.08 -0.2 0.16 -0.52 0.16 -0.64 l0 -0.16 l0.04 -0.04 l-0.04 -0.04 l-0.04 0 l-0.04 0.04 l0 -0.12 l0.08 -0.12 l-0.08 -0.08 l0.04 -0.16 c0 -0.68 0.12 -1.04 0.84 -1.48 c0.36 -0.12 0.64 -0.24 0.96 -0.24 l0.16 0 c0.36 0.16 0.56 0.28 0.72 0.68 l0.08 0.4 l0 0.44 c0.04 0 0.08 0.04 0.08 0.08 c0 0.08 -0.04 0.12 -0.08 0.12 l-0.08 -0.04 l0 0.04 l0.04 0.08 l0.04 0 l0.04 0.08 l0 0.04 c0 0.04 0 0.08 -0.04 0.08 l-0.04 0.04 l0.08 0.2 l-0.08 0.12 l0.04 0.08 c0 0.08 0 0.12 -0.04 0.16 l0.12 0.08 l-0.08 0.16 l-0.04 0.2 l0.12 0.24 c0 0.04 0 0.04 -0.04 0.04 l-0.08 -0.04 c-0.04 0 -0.04 0.04 -0.04 0.12 l0 0.2 l-0.04 0.08 l0 0.16 c0 0.12 0.04 0.24 0.08 0.24 l0.04 -0.08 l0 -0.08 l0.04 0.08 l-0.08 0.24 c-0.04 0.04 -0.08 0.08 -0.08 0.16 l0.04 0.12 l0 0.24 l-0.04 0.08 l0.08 0 l0.04 -0.04 l0 -0.04 s0 -0.04 0.04 -0.04 l0.04 0 c0.04 0 0.08 0.04 0.08 0.08 l-0.08 0.08 c-0.04 0.04 -0.04 0.08 -0.04 0.16 c0 0.04 0 0.12 0.08 0.12 l-0.04 0.32 c0 0.08 0 0.16 0.04 0.16 s0.08 0.08 0.08 0.2 s-0.04 0.24 -0.08 0.28 s-0.08 0.08 -0.12 0.08 l-0.08 0 l0.08 0.16 l-0.04 0.08 c-0.04 0.04 -0.04 0.12 -0.04 0.16 c0 0.08 0.04 0.12 0.08 0.12 c0.04 -0.04 0.04 -0.12 0.04 -0.2 l0 -0.12 c0.08 0 0.12 0.04 0.12 0.08 l-0.04 0.04 l0 0.16 c0 0.04 0 0.08 -0.04 0.08 c-0.08 0.04 -0.12 0.08 -0.12 0.12 s0.04 0.08 0.08 0.08 c0.08 0.04 0.12 0.12 0.12 0.24 l0.04 0.12 c0 0.08 -0.04 0.08 -0.12 0.08 c-0.04 0 -0.08 0 -0.08 0.04 l0.04 0.04 c0.04 0 0.08 0.12 0.08 0.24 c0 0.4 0.04 0.48 0.08 0.6 l0.04 0.12 l-0.12 0.24 l0.12 0.08 l-0.08 0.16 l-0.04 0.16 c0 0.08 0 0.12 0.04 0.12 l0.08 -0.04 c0.04 0 0.04 0 0.04 0.08 s-0.04 0.12 -0.04 0.12 c-0.04 0 -0.08 0.08 -0.08 0.16 c0 0.12 -0.04 0.2 -0.08 0.2 s-0.08 0.04 -0.08 0.08 l0.08 0 c0.08 0 0.08 0.12 0.08 0.24 l0 0.12 s0 0.08 0.08 0.12 s0.08 0.12 0.08 0.32 l0 0.16 l-0.04 -0.04 l-0.08 -0.04 l0 0.04 l0.08 0.16 c0.04 0.04 0.04 0.08 0.04 0.12 s0 0.08 -0.04 0.08 l-0.08 -0.04 l0 0.08 c0 0.04 0 0.08 0.04 0.08 s0.08 0.24 0.08 0.36 c0 0.04 -0.04 0.08 -0.08 0.08 s-0.04 0.04 -0.04 0.12 l0 0.28 l-0.04 0.12 l0.08 0.08 c0.04 0.04 0.08 0.04 0.08 0.08 l-0.2 0.8 c-0.04 -0.28 -0.04 -0.4 -0.08 -0.4 c0 0 -0.04 0.08 -0.04 0.28 c0 0.16 -0.08 0.36 -0.12 0.48 l-0.04 0.2 l0.08 -0.04 l0 -0.08 l0.16 0.08 l0 -0.16 l0.04 -0.08 l0.04 0 l0 0.12 c0 0.36 -0.04 0.48 -0.08 0.48 l-0.04 -0.04 l-0.12 0.16 c0 0.04 0.04 0.04 0.12 0.04 s0.12 0.04 0.12 0.08 l-0.08 0.04 l-0.08 0.12 l-0.04 0.16 l0.08 0.16 l0.16 0.16 c0.08 0 0.16 -0.08 0.16 -0.16 l-0.04 -0.04 c0 -0.04 0 -0.04 0.04 -0.04 c0.12 -0.04 0.2 -0.2 0.2 -0.36 l0 -0.16 c0 -0.08 0 -0.12 0.04 -0.12 s0.04 0.04 0.04 0.12 l0.04 0.08 l0 -0.04 l0.12 -0.12 c0.04 -0.04 0.08 -0.04 0.08 -0.12 l0 -0.08 l-0.12 0.16 l-0.08 -0.04 l-0.04 -0.08 l0.04 -0.08 c0.08 0 0.28 -0.28 0.48 -0.56 l0.64 -0.76 c0.12 -0.08 0.2 -0.24 0.2 -0.28 l0 -0.04 l0.04 0 c0.04 0 0.12 -0.04 0.16 -0.16 c0.04 -0.08 0.12 -0.16 0.16 -0.16 l0.04 0 c0.08 0 0.2 -0.12 0.2 -0.16 l0 -0.04 c0 -0.04 0.04 -0.08 0.12 -0.12 c0.04 0 0.12 -0.04 0.12 -0.08 s0.08 -0.12 0.2 -0.16 c0.08 -0.04 0.12 -0.08 0.12 -0.12 l0 -0.04 c0 -0.04 0.04 -0.12 0.08 -0.12 l0 0.08 c0.04 0 0.04 -0.04 0.08 -0.08 c0.04 -0.08 0.12 -0.12 0.16 -0.16 c0.08 0 0.12 -0.04 0.16 -0.08 l0.08 -0.04 c0.04 0 0.16 -0.04 0.24 -0.12 c0.12 -0.12 0.2 -0.12 0.52 -0.16 l0.4 0 c0.52 0 1 0.04 1.08 0.12 s0.76 0.4 0.84 0.4 c0.16 0 0.8 0.48 0.96 0.68 l0.2 0.28 c0.16 0.16 0.36 0.64 0.44 0.88 c0.04 0.16 0.08 0.32 0.12 0.36 l0.08 0.08 l-0.04 0.08 c0 0.04 0 0.28 0.04 0.48 l0 0.52 c0 0.08 0 0.32 0.04 0.48 c0 0.16 0 0.32 -0.04 0.36 l0 0.12 l-0.12 1.04 c-0.04 0.08 -0.04 0.16 -0.04 0.24 l0 0.08 c0 0.08 0 0.12 -0.04 0.16 l-0.04 0.16 l0 0.12 c0 0.16 -0.04 0.4 -0.08 0.6 l-0.04 0.36 c0 0.24 -0.12 1.12 -0.2 1.28 c0 0.12 -0.08 0.16 -0.12 0.16 c0 0 -0.04 0 -0.04 0.04 s0.04 0.04 0.08 0.04 s0.08 0.2 0.08 0.36 l0 0.16 l-0.12 0.68 c-0.04 0.04 -0.04 0.2 -0.04 0.36 c0 0.12 0 0.32 -0.04 0.44 c-0.04 0.16 -0.08 0.4 -0.08 0.56 c-0.04 0.2 -0.08 0.36 -0.12 0.36 s-0.08 0 -0.08 0.04 s0 0.04 0.04 0.04 l0.04 -0.04 l0.04 0 l0 0.28 c-0.04 0.16 -0.04 0.32 -0.04 0.4 l0 0.04 c0 0.04 0 0.08 -0.04 0.08 l-0.04 0.16 c0 0.08 0 0.28 -0.04 0.44 l0 0.64 l-0.04 0.08 l0.04 0.04 l-0.08 0.12 l0.04 0 c0.04 0 0.04 0.04 0.04 0.16 c-0.04 0.08 -0.04 0.24 -0.04 0.4 s-0.04 0.28 -0.08 0.36 l-0.04 0.04 l0.04 0.08 c0.04 0 0.08 0.12 0.08 0.2 l0 0.08 c0 0.08 0 0.08 -0.04 0.08 l-0.08 0 c-0.08 0 -0.16 0.04 -0.2 0.08 l-0.04 0.04 c-0.04 0 -0.04 -0.04 -0.04 -0.12 l0.04 -0.2 l-0.08 0.04 c-0.04 0.08 -0.08 0.16 -0.08 0.24 c-0.04 0.08 -0.12 0.16 -0.2 0.16 z M45.720000000000006 13.719999999999999 c0.04 0 0.04 -0.04 0.04 -0.08 s0 -0.04 -0.04 -0.04 l-0.04 0 c-0.04 0 -0.04 0.04 -0.04 0.08 s0.04 0.04 0.08 0.04 z M45.720000000000006 15.52 l0.12 -0.16 l-0.04 -0.08 l-0.04 0.04 s-0.04 0 -0.04 0.04 l-0.04 0.12 z M45.720000000000006 15.920000000000002 l0.16 -0.32 l-0.08 0 c-0.04 0 -0.08 0.04 -0.08 0.08 l0 0.24 z M46.120000000000005 16.04 l0 -0.08 s0 -0.04 0.04 -0.04 c0 0 0.04 0 0.04 0.04 s-0.04 0.08 -0.08 0.08 z M45.760000000000005 16.56 l0.04 -0.08 l0 -0.2 c0 -0.04 0 -0.04 -0.04 -0.04 s-0.04 0.12 -0.04 0.2 z M46.040000000000006 17 l0.04 -0.04 l0 -0.04 c0 -0.04 0 -0.08 -0.04 -0.08 l-0.04 0.08 c0 0.04 0 0.08 0.04 0.08 z M43.480000000000004 17.52 l0.08 -0.08 l-0.08 -0.12 l-0.04 0.04 l0 0.08 c0 0.04 0 0.08 0.04 0.08 z M46.080000000000005 18.88 l0.04 -0.04 l-0.04 -0.04 c0 -0.04 -0.04 -0.04 -0.04 -0.04 l0 0.08 z M43.440000000000005 19.44 l0.08 -0.04 l-0.04 -0.08 l-0.08 0.08 z M46.080000000000005 20 l0.08 -0.16 c0 -0.04 -0.04 -0.04 -0.04 -0.04 c-0.04 0 -0.08 0.04 -0.08 0.12 z M46.160000000000004 20.4 l0 -0.04 c0 -0.04 0 -0.08 -0.04 -0.12 l0 0.08 z M49.56 22.8 l0.12 -0.08 l0 -0.08 l-0.08 0.04 c-0.04 0 -0.08 0.04 -0.08 0.08 s0 0.04 0.04 0.04 z M48.400000000000006 23.8 c0.08 0 0.12 -0.08 0.12 -0.12 l0 -0.04 l-0.08 0.04 c-0.04 0 -0.08 0.04 -0.08 0.08 z M43.440000000000005 24.68 c0.04 0 0.04 -0.04 0.08 -0.08 l0.04 -0.04 l-0.04 -0.04 c-0.04 0 -0.04 0.04 -0.08 0.08 l0 0.08 z M48.28 23.96 l0.04 -0.08 c0 -0.04 0 -0.04 -0.04 -0.04 l-0.04 0.04 c0 0.04 0 0.08 0.04 0.08 z M43.440000000000005 24.96 l0.04 -0.04 c0 -0.04 -0.04 -0.04 -0.08 -0.04 s-0.04 0.04 -0.04 0.04 l0.04 0.04 l0.04 0 z M45.84 24.84 l0.04 -0.08 l-0.08 -0.04 l-0.04 0.08 l0.04 0.04 l0.04 0 z M51.440000000000005 24.439999999999998 c-0.04 0 -0.08 0 -0.08 -0.04 l0.04 -0.08 l0.04 0 c0.04 0 0.04 0 0.04 0.04 s0 0.08 -0.04 0.08 z M49.72 26.28 c-0.04 0 -0.04 -0.04 -0.04 -0.12 c0.12 0 0.08 -0.12 0.12 -0.12 l0 0.04 c0 0.08 -0.04 0.16 -0.08 0.2 z M52.160000000000004 26.08 c0 -0.04 0 -0.08 -0.04 -0.12 l0 0.04 c0 0.08 0 0.08 0.04 0.08 z M49.32 26.8 l-0.04 0 c0 -0.08 0.12 -0.28 0.16 -0.28 l0 0.04 c0 0.04 -0.04 0.2 -0.12 0.24 z M43.480000000000004 27.64 l0.04 -0.04 l-0.04 -0.08 c-0.04 0 -0.08 0.04 -0.08 0.08 z M46.040000000000006 27.64 l0.04 -0.04 c0 -0.04 -0.04 -0.08 -0.08 -0.08 l-0.04 0.08 c0 0.04 0.04 0.04 0.08 0.04 z M48.96 27.32 l-0.04 -0.04 l0.16 -0.2 l0 0.08 c0 0.08 -0.04 0.16 -0.12 0.16 z M51.92 26.96 l0 -0.08 c0 -0.04 0.04 -0.08 0.08 -0.08 c0 0.04 0 0.08 -0.04 0.12 z M47.68000000000001 28.32 c0.04 0 0.04 -0.04 0.08 -0.08 c0 -0.04 0 -0.04 -0.04 -0.04 s-0.04 0 -0.04 0.04 l0 0.08 z M51.84 28.2 l0.08 -0.04 l-0.04 -0.08 l-0.08 0.08 c0 0.04 0 0.04 0.04 0.04 z M51.800000000000004 28.48 l0.04 -0.04 l-0.04 -0.08 l-0.04 0 z M51.800000000000004 28.68 l0.08 -0.04 l-0.08 -0.04 l0 -0.04 l-0.04 0.04 z M48 29.52 l-0.04 -0.04 l0 -0.04 c0 -0.04 0.04 -0.04 0.04 -0.04 s0.04 0 0.04 0.04 z M54.2 28.96 l0.12 -0.16 l0.04 -0.12 c-0.04 0.04 -0.12 0.08 -0.16 0.16 l0 0.12 z M54 28.880000000000003 l0.04 -0.04 l-0.04 -0.04 c0 -0.04 -0.04 -0.04 -0.04 -0.04 l0 0.08 z M47 29.96 l0.08 -0.04 l0 -0.04 l-0.08 0 l0 0.08 z M51.56 29.8 c-0.04 0 -0.04 0 -0.04 -0.08 s0 -0.2 0.04 -0.2 l0 -0.04 l0.04 0.04 z M47.68000000000001 30.48 l-0.08 0 l0.04 -0.12 l0.08 0 z M54.160000000000004 29.84 l0.08 -0.04 l-0.04 -0.08 l-0.04 0.08 l0 0.04 z M51.72 30.240000000000002 l0.08 -0.04 l0 -0.04 l-0.16 0.08 l0.08 0 z M47.400000000000006 31.2 l-0.04 -0.08 l0 -0.04 l0.04 0 l0 0.12 z M51.56 31.28 c0 0 0.04 0 0.04 -0.04 l0 -0.04 l-0.04 0 c-0.04 0 -0.04 0 -0.04 0.04 s0 0.04 0.04 0.04 z M51.400000000000006 31.36 l0.08 -0.04 l-0.04 -0.08 l-0.08 0.08 c0 0.04 0 0.04 0.04 0.04 z M47.2 32.12 l-0.04 -0.04 l0 -0.08 l0.04 0.04 l0 0.08 z M51.36 32.12 c0 0 0.08 -0.2 0.08 -0.28 l-0.04 -0.04 s-0.04 0 -0.04 0.04 c-0.04 0 -0.04 0.04 -0.04 0.08 s0 0.12 0.04 0.2 z M46.92 33.24 l-0.08 -0.04 l0.08 -0.2 l0.04 0.08 c0 0.04 0 0.12 -0.04 0.16 z M53.56 32.32 l0.04 -0.08 l0 -0.04 c0 -0.04 0 -0.04 -0.04 -0.04 l-0.04 0.08 z M46.56 34.519999999999996 l0 -0.08 c0 -0.04 -0.04 -0.04 -0.04 -0.04 l0 0.08 z M53.400000000000006 33.68 l0.04 -0.08 l0 -0.04 c-0.04 0 -0.08 0.04 -0.08 0.08 z M53.72 33.92 c0.04 0 0.04 -0.04 0.04 -0.08 s-0.04 -0.04 -0.04 -0.04 l-0.04 0.08 s0 0.04 0.04 0.04 z M65.96000000000001 37.72 l-0.04 -0.08 c-0.04 -0.08 -0.04 -0.12 -0.12 -0.12 l-0.16 0.08 l-0.08 0.08 l-0.08 -0.08 l-0.08 0.08 l-0.08 -0.04 c0 -0.04 0 -0.08 0.04 -0.12 l0.04 -0.04 l-0.08 0 c-0.04 0 -0.08 0 -0.08 0.04 l0 0.16 l-0.2 -0.2 c-0.08 -0.12 -0.12 -0.16 -0.16 -0.16 l-0.04 0 s-0.04 -0.04 -0.04 -0.12 c-0.04 -0.24 -0.16 -0.44 -0.2 -0.44 s-0.04 0.04 -0.04 0.08 s0 0.08 -0.04 0.08 l-0.16 -0.08 c-0.08 -0.08 -0.12 -0.32 -0.32 -1.12 c-0.04 -0.16 -0.04 -0.8 -0.08 -1.64 c0 -0.76 0 -1.44 -0.04 -1.48 l0 -0.28 c0 -0.12 0 -0.4 -0.04 -0.6 c0 -0.24 0 -0.32 -0.04 -0.32 l-0.2 0.32 c-0.04 0.04 -0.04 0.08 -0.08 0.08 c0 -0.04 0 -0.04 -0.04 -0.04 c-0.04 0.04 -0.04 0.12 -0.04 0.2 s0 0.16 -0.08 0.24 l-0.12 0.24 c0 0.04 -0.04 0.08 -0.2 0.08 l-0.04 0 l0.04 0 l0.08 0.08 l-0.08 0.04 c-0.04 0 -0.12 0.12 -0.2 0.24 c-0.04 0.08 -0.12 0.2 -0.16 0.2 l-0.08 0.12 c0 0.12 -0.2 0.32 -0.28 0.32 l-0.04 0 c-0.04 0 -0.04 0 -0.04 0.04 l0 0.04 l-0.04 0.12 l-0.04 0.2 c0 0.12 -0.12 0.32 -0.28 0.48 c-0.12 0.08 -0.2 0.2 -0.2 0.24 c0 0.08 -0.04 0.08 -0.2 0.08 c-0.04 0 -0.04 0 -0.04 0.04 l0.04 0.08 c0 0.12 -0.28 0.48 -0.44 0.56 c-0.08 0 -0.08 0.04 -0.08 0.08 c0 0.12 -0.6 0.68 -0.72 0.68 l-0.24 0.12 c-0.08 0.08 -0.28 0.16 -0.44 0.2 l-0.52 0.04 c-0.12 0 -0.24 0 -0.24 -0.04 c0 0 0 -0.04 -0.08 -0.04 c-0.32 -0.04 -0.64 -0.08 -0.72 -0.16 c-0.04 -0.04 -0.12 -0.04 -0.12 -0.04 l-0.24 -0.08 c-0.08 -0.08 -0.24 -0.16 -0.32 -0.16 c-0.04 -0.04 -0.08 -0.04 -0.08 -0.08 l0.08 -0.04 l-0.12 -0.08 c-0.04 -0.04 -0.12 -0.04 -0.16 -0.04 l-0.04 0 l0 -0.04 c0 -0.04 -0.04 -0.08 -0.12 -0.08 s-0.2 -0.12 -0.32 -0.2 c-0.12 -0.12 -0.28 -0.24 -0.36 -0.28 c-0.12 -0.04 -0.2 -0.12 -0.24 -0.2 c0 -0.08 -0.08 -0.16 -0.12 -0.2 s-0.08 -0.08 -0.08 -0.12 s-0.04 -0.08 -0.08 -0.12 c-0.4 -0.44 -0.76 -0.92 -0.96 -1.36 c-0.04 -0.08 -0.12 -0.32 -0.24 -0.48 c-0.08 -0.28 -0.16 -0.48 -0.2 -0.92 l-0.04 -0.72 l0.04 -0.36 c0.04 0 0.04 -0.08 0.04 -0.2 c0 -0.16 0.04 -0.28 0.12 -0.36 c0.08 -0.04 0.16 -0.2 0.2 -0.32 c0.04 -0.16 0.08 -0.28 0.16 -0.36 c0.04 -0.04 0.08 -0.12 0.08 -0.2 c0 -0.04 0.04 -0.12 0.08 -0.12 c0.04 -0.04 0.48 -0.68 0.48 -0.72 s0 -0.08 0.04 -0.08 s0.04 0 0.04 -0.08 c0 -0.04 0.04 -0.08 0.08 -0.08 l0.32 -0.4 c0.08 -0.04 0.2 -0.2 0.2 -0.32 l-0.04 -0.08 c0 -0.04 0 -0.04 0.04 -0.04 l0.04 0 l0.08 -0.04 l0.04 -0.04 l-0.04 -0.04 s0 -0.04 0.04 -0.04 c0.08 -0.04 0.16 -0.16 0.24 -0.28 c0.12 -0.12 0.2 -0.28 0.24 -0.28 c0.12 -0.16 0.72 -0.88 0.72 -0.92 l0.12 -0.08 c0.04 0 0.12 -0.08 0.12 -0.16 c0.04 -0.12 0.76 -0.88 1.16 -1.16 l0.92 -0.76 l0.44 -0.24 c0.08 -0.04 0.12 -0.08 0.12 -0.12 l0 -0.08 l0.2 -0.08 c0.28 -0.12 1.08 -0.32 1.4 -0.36 l0.36 -0.04 l0.08 -0.04 c0.04 0 0.04 0.04 0.04 0.08 s0.08 0.12 0.16 0.2 l0.2 0.16 l0.12 0.04 c0.04 0 0.08 0.04 0.08 0.08 c0.04 0.08 0.08 0.16 0.16 0.2 c0.36 0.2 0.68 0.56 0.76 0.76 c0.04 0.16 0.08 0.2 0.16 0.2 c0.04 0 0.08 -0.08 0.08 -0.12 l0 -0.04 l0.04 0 l0 -0.24 l0.04 0 l0.08 -0.04 c0.04 -0.04 0.08 -0.64 0.08 -1 c0 -0.16 0.04 -0.32 0.08 -0.4 s0.08 -0.2 0.08 -0.28 s0 -0.16 0.04 -0.16 s0.08 0.04 0.08 0.08 c0 0.08 0.08 0.12 0.16 0.12 c0.12 0.04 0.24 0.08 0.28 0.12 c0 0.04 0.08 0.08 0.16 0.08 c0.04 0 0.16 0.04 0.28 0.12 c0.08 0.08 0.2 0.16 0.24 0.16 c0.08 0.04 0.12 0.12 0.16 0.2 c0 0.12 0.08 0.16 0.24 0.24 c0.12 0.08 0.24 0.16 0.24 0.24 c0.04 0.08 0.12 0.2 0.2 0.24 c0.08 0.08 0.12 0.16 0.12 0.24 s0.04 0.12 0.08 0.12 l0.08 -0.08 l0.04 0 s0.04 0.04 0.04 0.12 s0 0.2 0.04 0.2 l0.04 0.68 c0 0.56 -0.04 1.2 -0.08 1.28 c-0.04 0.16 -0.08 0.6 -0.08 0.88 c0 0.08 0 0.16 -0.04 0.2 c-0.04 0.12 -0.04 0.28 -0.04 0.76 c-0.04 0.2 -0.04 0.4 -0.08 0.4 s-0.04 0.08 -0.04 0.16 l-0.04 0.2 c-0.04 0 -0.04 0 -0.04 0.04 l0 0.04 c0 0.04 0 0.12 -0.04 0.2 l-0.04 0.12 l0.08 0.12 l-0.08 0.08 l0.08 0.08 l-0.08 0.2 c-0.04 0.08 -0.04 0.24 -0.04 0.32 c0 0.04 -0.04 0.12 -0.08 0.12 s-0.04 0.04 -0.04 0.08 l0.04 0.08 c0.04 0 0.08 0.04 0.08 0.08 l-0.04 0.16 l-0.04 0.24 l0.04 0.04 l-0.04 0.12 c-0.04 0.08 -0.04 0.24 -0.04 0.36 s0 0.2 -0.04 0.2 s-0.04 0 -0.04 0.04 l0 0.04 c0.04 0.04 0.04 0.44 0.04 0.84 l0.04 0.88 l0.08 -0.08 l0.04 0.04 l-0.08 0.12 c-0.08 0.04 -0.08 0.08 -0.08 0.16 c0.04 0.16 0.12 1.08 0.12 1.64 c0 0.2 0 0.36 -0.04 0.36 s-0.08 0.08 -0.08 0.16 l0.04 0.16 c0.08 0.08 0.12 0.24 0.12 0.32 l0 0.08 c-0.04 0 -0.04 0.04 -0.04 0.08 l-0.04 0.24 l-0.08 0.36 c0 0.08 0 0.16 -0.04 0.2 l-0.04 0.16 c0 0.12 0 0.12 -0.12 0.12 l-0.04 0 c-0.04 0 -0.04 0.04 -0.04 0.16 c0 0.08 0 0.12 -0.04 0.12 l-0.08 -0.08 z M62.120000000000005 22.48 l-0.12 0 c-0.04 0 -0.04 -0.04 -0.04 -0.08 c0 0 0 -0.04 0.08 -0.04 c0.04 0 0.08 0 0.08 0.08 l0 0.04 z M62.28000000000001 22.56 l-0.04 -0.04 l0.08 -0.08 l0.08 0.08 z M64.08000000000001 24.560000000000002 l0.04 -0.04 l0.04 -0.16 c-0.04 0 -0.04 0 -0.04 0.04 c-0.04 0.04 -0.08 0.08 -0.08 0.12 z M57.440000000000005 33.76 l0.28 -0.04 c0.12 0 0.28 -0.04 0.32 -0.08 l0.16 -0.08 c0.12 -0.04 0.48 -0.2 0.6 -0.32 l0.32 -0.24 l0.16 -0.16 c0.08 -0.16 0.2 -0.28 0.28 -0.28 s0.52 -0.56 0.52 -0.68 l0 -0.04 l0.08 -0.16 c-0.04 -0.12 -0.04 -0.12 -0.16 -0.12 l-0.2 -0.04 c-0.04 0 -0.04 0.04 -0.04 0.08 c-0.04 0 -0.04 -0.04 -0.04 -0.08 s0.04 -0.08 0.12 -0.12 l0.08 -0.04 l0 -0.16 l0.04 -0.04 c0.08 0 0.16 0.08 0.16 0.12 l-0.08 0 c-0.04 0 -0.08 0.04 -0.08 0.12 l0 0.12 c0.24 -0.2 0.48 -0.32 0.56 -0.68 c0.04 -0.12 0.12 -0.24 0.24 -0.24 c0.08 0 0.12 -0.04 0.12 -0.08 s0 -0.04 0.04 -0.04 l0.08 0 l0 -0.04 c0 -0.08 0.04 -0.12 0.08 -0.12 s0.08 -0.04 0.08 -0.08 l-0.04 -0.12 l0.08 0.04 s0.04 0 0.04 -0.04 s0.04 -0.04 0.08 -0.04 s0.08 -0.04 0.08 -0.08 c0 -0.08 0 -0.08 -0.04 -0.08 l-0.04 0.04 l0 -0.04 c0 -0.04 0 -0.16 0.08 -0.28 c0.04 -0.04 0.08 -0.12 0.08 -0.2 l0 -0.08 l0.2 0 c0.04 0 0.08 0 0.08 -0.04 l0 -0.08 c0 -0.12 0.04 -0.2 0.2 -0.32 c0.12 -0.12 0.16 -0.16 0.16 -0.28 l0 -0.08 c0 -0.2 0.08 -0.4 0.2 -0.4 c0.04 0 0.08 -0.04 0.08 -0.08 c0 -0.08 0.04 -0.12 0.08 -0.12 l0.04 0 s0.04 -0.04 0.04 -0.24 l0 -0.04 l0.04 0 l0.08 -0.12 c0 -0.08 0.04 -0.16 0.08 -0.16 s0.04 -0.04 0.04 -0.08 l-0.04 -0.08 l0.08 -0.04 c0.04 0 0.08 -0.04 0.08 -0.12 l0.04 -0.16 c0.04 0 0.08 -0.04 0.08 -0.08 s0.04 -0.04 0.08 -0.04 l0.04 0 c0.04 0 0.04 -0.04 0.04 -0.2 c0 -0.04 0.04 -0.08 0.12 -0.12 c0.08 0 0.08 -0.04 0.08 -0.12 l0 -0.12 c0.04 0 0.08 -0.08 0.08 -0.12 c0 -0.08 0.04 -0.2 0.12 -0.28 c0.12 -0.16 0.16 -0.28 0.16 -0.4 c0 -0.16 -0.08 -0.24 -0.28 -0.24 l-0.16 0 c-0.36 0.04 -0.92 0.24 -0.92 0.32 c0 0.04 -0.04 0.04 -0.08 0.04 l-0.04 0 c-0.08 0 -0.48 0.24 -0.48 0.28 c0 0.08 -0.12 0.2 -0.32 0.32 l-0.36 0.28 c-0.08 0.12 -0.16 0.16 -0.2 0.16 c0 -0.04 0.04 -0.12 0.12 -0.16 l0.04 -0.12 c-0.04 0 -0.16 0.12 -0.32 0.28 l-0.4 0.32 c-0.12 0.12 -0.52 0.56 -0.52 0.6 c0.04 0 0.24 -0.2 0.48 -0.44 s0.48 -0.4 0.48 -0.4 l0 0.04 c0 0.04 -0.08 0.12 -0.16 0.2 c-0.12 0.08 -0.2 0.2 -0.2 0.2 s-0.16 0.2 -0.36 0.36 l-0.36 0.36 c0 0.04 -0.12 0.16 -0.24 0.32 c-0.16 0.2 -0.28 0.32 -0.28 0.36 l-0.08 0.04 l-0.04 -0.04 c0 -0.08 0.2 -0.32 0.44 -0.6 c0.12 -0.12 0.2 -0.2 0.2 -0.24 c-0.08 0 -0.24 0.16 -0.68 0.68 l-0.16 0.24 l0.12 -0.04 c0 0.08 -0.08 0.16 -0.2 0.36 c-0.28 0.4 -0.4 0.56 -0.4 0.64 l0.04 0.08 l-0.08 -0.04 l-0.2 0.08 l0.04 -0.08 c0 -0.04 0 -0.08 -0.08 -0.08 c-0.04 0 -0.08 0.04 -0.08 0.08 s0 0.08 -0.04 0.08 s-0.16 0.24 -0.16 0.4 l0 0.04 c0 0.04 0 0.04 -0.04 0.04 l-0.08 0 c0 0.04 0 0.08 -0.04 0.08 s-0.04 0 -0.04 0.04 l-0.08 0.24 l-0.08 0.16 l0.08 0.08 l-0.04 0.04 c-0.04 0 -0.04 0.08 -0.04 0.12 s0 0.04 -0.04 0.04 s-0.12 0.08 -0.16 0.2 l-0.12 0.24 c-0.04 0 -0.04 0 -0.04 0.04 l0 0.04 l-0.12 0.32 c-0.12 0.28 -0.16 0.4 -0.16 0.48 l0.04 0.08 l0.04 0.04 l-0.08 0.08 c-0.04 0.04 -0.08 0.08 -0.08 0.12 l0.08 0.56 l0.04 0.12 c0.04 0.04 0.04 0.12 0.04 0.24 c0 0.16 0.04 0.16 0.16 0.16 l0.2 0 z M62.120000000000005 26 l-0.08 0 l-0.04 -0.04 l0 -0.04 z M63.080000000000005 26.48 l0.04 -0.2 l0.08 -0.04 l0 0.04 l-0.08 0.16 z M57.120000000000005 26.72 l0.08 -0.04 c0 -0.04 0 -0.08 -0.04 -0.08 l-0.04 0.08 l0 0.04 z M63.88000000000001 26.759999999999998 l0 -0.04 c0 -0.04 0 -0.04 -0.04 -0.04 s-0.04 0 -0.04 0.04 z M63.160000000000004 28.04 c0 0 0.08 -0.04 0.08 -0.08 s0 -0.04 -0.04 -0.04 s-0.08 0.04 -0.12 0.08 c0 0.04 0 0.04 0.04 0.04 l0.04 0 z M63.760000000000005 28.72 l0.04 -0.04 l0 -0.08 c-0.04 0 -0.08 0.04 -0.08 0.08 z M56.400000000000006 28.96 l0.04 -0.08 l-0.04 -0.04 l-0.08 0.08 c0 0.04 0.04 0.04 0.08 0.04 z M58.64000000000001 28.96 l0.08 -0.08 l-0.04 -0.04 l-0.08 0.08 c0 0.04 0.04 0.04 0.04 0.04 z M58.32000000000001 29.4 l0.08 -0.08 c0.04 -0.04 0.08 -0.08 0.08 -0.12 c-0.08 0 -0.2 0.12 -0.2 0.16 z M62.2 29.32 c0.04 0 0.08 -0.04 0.08 -0.08 l-0.04 0 c-0.04 0.04 -0.08 0.04 -0.08 0.08 l0.04 0 z M63.68000000000001 30 c0.08 0 0.2 -0.2 0.24 -0.32 l0 -0.12 l-0.04 0.08 c-0.04 0.08 -0.08 0.16 -0.12 0.16 c-0.04 0.04 -0.08 0.08 -0.08 0.16 l0 0.04 z M66.08000000000001 29.84 l0.04 -0.04 l0 -0.08 l-0.04 0 s-0.04 0 -0.04 0.04 c0 0.08 0 0.08 0.04 0.08 z M58.120000000000005 29.92 c-0.04 0 -0.04 -0.04 -0.04 -0.08 c0 0 0.04 0 0.04 -0.04 c0.04 0 0.04 0 0.04 0.04 l0.04 0.04 c0 0.04 0 0.04 -0.08 0.04 z M63.480000000000004 30.36 l0.08 -0.12 l-0.04 0 l-0.04 0.08 l0 0.04 z M63.68000000000001 30.72 l0.16 -0.32 c-0.04 0 -0.04 0.04 -0.12 0.08 l-0.08 0.2 z M57.32000000000001 30.8 l0.08 -0.04 c0 -0.04 -0.04 -0.04 -0.08 -0.08 l-0.08 0 l0 0.08 z M63.64000000000001 30.880000000000003 l0.04 -0.08 c-0.04 -0.04 -0.08 -0.08 -0.12 -0.08 l-0.04 0 z M60.080000000000005 31.08 c-0.04 0 -0.04 0 -0.04 -0.04 l0 -0.04 c0 -0.04 0.04 -0.08 0.08 -0.08 s0.04 0 0.04 0.04 s-0.04 0.08 -0.08 0.12 z M62.96000000000001 31.16 l0.08 -0.04 l0.08 -0.16 s0 -0.04 -0.04 -0.04 s-0.04 0.04 -0.04 0.04 l0 0.04 z M63.88000000000001 31.240000000000002 c0.04 0 0.08 -0.04 0.08 -0.12 s-0.04 -0.16 -0.08 -0.16 l-0.04 0 c-0.08 0 -0.16 0.04 -0.16 0.12 l0 0.04 l0.12 -0.04 c0.04 0 0.04 0 0.04 0.04 l0 0.08 c0 0.04 0.04 0.04 0.04 0.04 z M57.080000000000005 31.2 c0.04 0 0.08 -0.04 0.08 -0.08 l0 -0.08 s0 0.04 -0.04 0.04 c-0.04 0.04 -0.08 0.08 -0.08 0.12 l0.04 0 z M63.400000000000006 31.439999999999998 l-0.08 -0.12 c0 -0.08 -0.04 -0.08 -0.04 -0.08 l-0.04 0 c0 0.12 0.08 0.2 0.16 0.2 z M63.480000000000004 31.560000000000002 l0.08 -0.04 l0.04 -0.16 c0 -0.04 -0.04 -0.04 -0.04 -0.04 l-0.04 0.08 z M63.24000000000001 31.64 l0 -0.08 l-0.08 -0.12 c-0.04 0 -0.08 0 -0.08 0.04 c0 0.12 0.12 0.16 0.16 0.16 z M62.32000000000001 31.68 c0.04 0 0.08 -0.04 0.08 -0.08 l0.04 -0.08 l-0.04 0 c-0.04 0 -0.04 0.04 -0.08 0.08 l-0.04 0.04 z M62.60000000000001 31.72 c0.04 0 0.08 -0.04 0.12 -0.08 l0.04 -0.08 z M63.24000000000001 31.96 l0.12 -0.16 l0.04 -0.08 l-0.04 -0.04 l-0.12 0.16 l-0.04 0.08 z M62.96000000000001 31.880000000000003 c0.08 0 0.12 0 0.12 -0.04 l0 -0.04 c0 -0.08 0 -0.08 -0.04 -0.08 l-0.08 0.04 l-0.12 0.08 c0 0.04 0.04 0.04 0.12 0.04 z M59.68000000000001 31.84 c-0.04 0 -0.04 0 -0.04 -0.04 l0.08 -0.04 c0.04 0 0.04 0 0.04 0.04 z M62.88000000000001 32.16 l0.04 -0.04 c0.04 -0.04 0.04 -0.08 0.04 -0.12 l-0.04 0 c-0.04 0 -0.04 0 -0.04 0.08 l0 0.08 z M62.760000000000005 32.32 c0.04 0 0.04 0 0.04 -0.04 l-0.04 -0.08 c-0.04 0 -0.04 0 -0.04 0.04 s0 0.08 0.04 0.08 z M63.2 32.32 c0.04 0 0.04 -0.04 0.04 -0.08 s0 -0.04 -0.04 -0.04 l-0.08 0.08 c0 0.04 0.04 0.04 0.08 0.04 z M62.60000000000001 32.56 l0.04 -0.08 l-0.04 -0.04 c-0.04 0 -0.04 0.04 -0.04 0.04 c0 0.04 0 0.08 0.04 0.08 z M62.480000000000004 32.8 l0.04 -0.04 c0.04 -0.04 0.08 -0.08 0.08 -0.12 l-0.04 0 l-0.08 0.08 l0 -0.08 l-0.04 0 c-0.04 0 -0.04 0.04 -0.04 0.12 z M62.800000000000004 32.88 c0.04 0 0.04 -0.04 0.08 -0.08 l0 -0.04 c-0.04 0 -0.08 0.04 -0.08 0.08 l0 0.04 z M58.92000000000001 33 l-0.08 -0.08 c0 -0.04 0 -0.04 0.04 -0.04 l0.08 0.04 c0 0.04 0 0.08 -0.04 0.08 z M61.32000000000001 34.56 l0.12 -0.04 l0.04 -0.08 s0 -0.04 -0.04 -0.04 s-0.12 0.04 -0.12 0.12 l0 0.04 z M72.96000000000001 40.8 c-0.16 0 -0.36 -0.04 -0.64 -0.12 s-0.64 -0.24 -0.88 -0.36 c-0.56 -0.32 -1.88 -1.52 -2.12 -1.88 c-0.24 -0.4 -0.44 -0.68 -0.64 -0.88 c-0.2 -0.16 -0.28 -0.44 -0.28 -0.68 c0 -0.2 0.04 -0.4 0.16 -0.52 s0.24 -0.2 0.28 -0.2 l0.4 -0.04 c0.12 0 0.16 0.04 0.2 0.16 c0 0.08 0.04 0.12 0.04 0.12 l0.08 0 c0.08 0 0.12 0.08 0.16 0.16 c0.04 0.12 0.12 0.2 0.16 0.2 l0.04 0 c0.08 0 0.16 0.04 0.2 0.12 c0.04 0.04 0.08 0.08 0.12 0.08 l0.12 -0.08 l0.08 -0.08 l-0.12 0.28 c0 0.04 0.04 0.08 0.12 0.16 s0.2 0.16 0.24 0.24 c0 0.04 0 0.04 0.04 0.04 s0.16 -0.04 0.28 -0.12 c0.2 -0.12 0.44 -0.2 0.68 -0.2 s0.4 -0.04 0.4 -0.12 c0 -0.04 -0.08 -0.08 -0.16 -0.08 s-0.12 -0.04 -0.12 -0.08 c0.04 -0.08 0.12 -0.12 0.24 -0.12 c0.08 0 0.24 -0.08 0.4 -0.24 l0.32 -0.32 c0.04 -0.04 0.08 -0.12 0.08 -0.2 l-0.04 -0.04 l-0.2 0.16 l0 -0.08 c0 -0.08 0.08 -0.16 0.2 -0.2 c0.16 0 0.32 -0.2 0.32 -0.32 l-0.04 -0.12 c0 -0.04 0.04 -0.08 0.12 -0.16 l0.12 -0.12 l-0.04 0.12 l0.04 0.04 c0.04 0 0.16 -0.12 0.36 -0.36 c0.16 -0.2 0.24 -0.36 0.24 -0.44 l0 -0.04 l-0.12 0.04 c-0.04 0 -0.08 0 -0.08 -0.04 s0.04 -0.08 0.12 -0.08 l0.28 0.04 c0.12 0 0.2 -0.04 0.28 -0.16 l0.04 -0.2 s0 -0.04 -0.04 -0.04 l-0.04 -0.08 l0 -0.04 c0 -0.04 -0.04 -0.08 -0.08 -0.08 s-0.12 -0.08 -0.12 -0.12 s0.04 -0.08 0.12 -0.08 s0.16 0.04 0.16 0.08 s0.08 0.12 0.12 0.12 s0.08 -0.04 0.08 -0.12 l0 -0.04 c0 -0.12 0.24 -0.44 0.52 -0.6 c0.08 -0.08 0.16 -0.16 0.16 -0.2 l-0.04 0 c-0.04 0 -0.04 -0.04 -0.04 -0.08 l0.08 -0.32 c0.08 -0.16 0.12 -0.32 0.12 -0.44 l-0.04 -0.16 l0.12 0.04 c0.16 0 0.44 -0.28 0.44 -0.44 l0 -0.04 c0 -0.08 0.04 -0.16 0.16 -0.24 c0.08 -0.04 0.16 -0.16 0.16 -0.2 l0 -0.04 c0 -0.08 0.08 -0.12 0.16 -0.2 c0.04 -0.04 0.08 -0.12 0.08 -0.2 l0 -0.08 c0 -0.08 0.08 -0.24 0.16 -0.32 c0.2 -0.16 0.32 -0.36 0.32 -0.4 l-0.04 -0.04 l-0.08 0.04 l0.16 -0.28 c0.12 -0.12 0.2 -0.28 0.2 -0.32 l-0.04 -0.04 l0.08 -0.12 c0.08 -0.04 0.16 -0.16 0.16 -0.2 l0 -0.04 c0 -0.28 0.32 -0.88 0.52 -1.04 l0.08 -0.08 l-0.04 -0.16 l0.08 -0.36 l0.12 -0.32 l-0.04 -0.04 l-0.12 0.04 c-0.08 0 -0.12 -0.04 -0.12 -0.08 c0 -0.08 0.04 -0.16 0.12 -0.24 l0.16 -0.08 l0.16 0.08 c0.04 0 0.12 -0.08 0.2 -0.32 l0 -0.08 l-0.24 0.08 l0.04 -0.08 c0.04 -0.04 0.16 -0.12 0.24 -0.12 c0.12 -0.04 0.2 -0.12 0.2 -0.28 l0 -0.12 c0 -0.04 0 -0.08 0.04 -0.08 l0.04 0 c0.08 0 0.28 -0.44 0.28 -0.72 l0 -0.04 c0 -0.12 0.04 -0.2 0.08 -0.2 c0.08 0 0.16 0 0.2 -0.04 c0.04 0 0.08 -0.04 0.08 -0.08 l0 -0.04 c0 -0.08 0.04 -0.24 0.12 -0.32 s0.12 -0.16 0.12 -0.2 l0 -0.08 c0 -0.04 0.04 -0.04 0.08 -0.08 c0.12 -0.04 0.6 -1.04 0.6 -1.24 l0 -0.04 c0 -0.04 -0.04 -0.04 -0.08 -0.04 l-0.12 0 c-0.04 0 -0.04 -0.04 -0.04 -0.08 c0.04 -0.08 0.12 -0.16 0.2 -0.2 c0.08 0 0.16 -0.12 0.16 -0.2 l0 -0.08 c0 -0.08 0 -0.12 0.04 -0.12 s0.12 -0.12 0.12 -0.24 c0.04 -0.16 0.16 -0.36 0.28 -0.52 c0.08 -0.08 0.12 -0.24 0.12 -0.28 l0 -0.12 c0 -0.04 0 -0.04 0.04 -0.04 s0.08 -0.12 0.08 -0.24 l0 -0.12 c0 -0.08 0.04 -0.12 0.12 -0.16 s0.12 -0.08 0.12 -0.16 l-0.04 -0.12 c0 -0.04 0.04 -0.04 0.12 -0.04 s0.12 -0.08 0.12 -0.2 l0 -0.08 c0 -0.12 0.08 -0.28 0.16 -0.4 c0.08 -0.16 0.16 -0.36 0.16 -0.44 l0 -0.04 c0 -0.08 0.04 -0.24 0.12 -0.32 c0.04 -0.04 0.08 -0.12 0.08 -0.2 l-0.04 -0.08 c-0.04 0 -0.04 0.04 -0.08 0.12 l-0.04 0.12 l-0.04 -0.12 c0 -0.12 0.08 -0.28 0.16 -0.36 c0.12 -0.12 0.2 -0.24 0.2 -0.32 s0.04 -0.12 0.08 -0.12 s0.08 -0.04 0.08 -0.08 l-0.12 -0.32 c0 -0.04 0.04 -0.08 0.12 -0.08 c0.04 0 0.08 0.04 0.08 0.08 l0 0.08 l0.08 -0.08 c0.08 -0.08 0.12 -0.2 0.12 -0.28 l0 -0.08 c0 -0.12 0.04 -0.24 0.08 -0.28 s0.04 -0.12 0.04 -0.24 l0 -0.28 c0 -0.12 0.04 -0.16 0.12 -0.16 s0.12 -0.04 0.12 -0.04 l0 -0.04 c0 -0.08 0.04 -0.12 0.08 -0.16 l0.2 -0.32 l0.08 -0.24 l-0.2 0.16 l-0.04 -0.04 l0.04 -0.16 c0 -0.24 0.08 -0.4 0.16 -0.4 l0.16 0.12 c0.04 0 0.04 -0.04 0.08 -0.12 l0 -0.08 c0 -0.04 -0.04 -0.08 -0.08 -0.12 l-0.04 -0.08 l0.08 -0.4 c-0.04 0 -0.12 0.08 -0.28 0.24 c-0.68 0.8 -0.92 1 -1.16 1 c-0.12 0 -0.24 0.08 -0.28 0.24 c-0.04 0.08 -0.12 0.28 -0.2 0.36 s-0.12 0.24 -0.12 0.32 s-0.08 0.2 -0.24 0.28 c-0.12 0.04 -0.24 0.16 -0.24 0.2 l0 0.04 c-0.04 0 -0.08 -0.04 -0.12 -0.08 l-0.08 -0.08 c-0.04 0 -0.04 0.04 -0.04 0.08 l-0.08 0.04 l-0.04 0 l-0.08 0.04 l0.04 0.04 c0.04 0.08 0.16 0.12 0.28 0.12 l0.08 0 c0.08 0 0.12 0 0.12 0.08 c0 0.04 -0.08 0.12 -0.2 0.24 c-0.12 0.08 -0.4 0.4 -0.64 0.68 c-0.56 0.64 -0.84 0.92 -0.96 0.92 l-0.08 0.04 l0.04 0.08 c0 0.04 -0.04 0.08 -0.08 0.08 l-0.08 0.04 l0 -0.12 l-0.08 0 c-0.08 0 -0.12 0.12 -0.12 0.24 c0 0.08 -0.04 0.24 -0.12 0.28 l-0.08 0.08 c-0.04 0 -0.04 -0.08 -0.08 -0.16 c-0.04 -0.16 -0.08 -0.24 -0.16 -0.24 c-0.04 0 -0.12 0.04 -0.2 0.16 c-0.04 0.08 -0.12 0.12 -0.16 0.12 l-0.04 -0.04 c0 -0.04 -0.08 -0.08 -0.2 -0.08 c-0.08 0 -0.2 -0.04 -0.2 -0.12 c0 -0.04 0.04 -0.08 0.12 -0.08 s0.12 -0.04 0.12 -0.12 l0 -0.04 c0 -0.08 0 -0.12 -0.04 -0.12 l-0.04 0.08 c-0.04 0.08 -0.04 0.08 -0.08 0.08 l-0.12 -0.04 l-0.2 -0.12 c-0.04 0 -0.08 0.04 -0.08 0.12 c0.04 0.08 0.08 0.12 0.16 0.12 l0.04 0 c0.04 0 0.08 0.08 0.12 0.2 c0.04 0.2 0.12 0.32 0.16 0.32 s0.08 -0.04 0.08 -0.08 s0 -0.08 0.04 -0.08 l0.16 0.16 c0.08 0.08 0.16 0.16 0.24 0.16 l0.2 -0.16 l0.04 0.04 c0 0.12 -1.36 1.64 -1.52 1.64 c-0.08 0 -0.16 0.08 -0.2 0.2 c-0.08 0.2 -1.6 1.76 -1.76 1.76 c-0.08 0 -0.16 0.08 -0.2 0.16 s-0.12 0.16 -0.16 0.16 c-0.2 0.04 -0.36 0.12 -0.36 0.24 l0 0.04 c0 0.12 -0.28 0.4 -0.52 0.44 c-0.04 0 -0.2 0.12 -0.36 0.28 c-0.12 0.12 -0.32 0.32 -0.4 0.44 c-0.12 0.08 -0.28 0.2 -0.44 0.24 c-0.12 0.04 -0.32 0.16 -0.44 0.24 c-0.12 0.12 -0.24 0.24 -0.36 0.24 c-0.08 0 -0.28 0.08 -0.44 0.16 c-0.2 0.08 -0.48 0.16 -0.64 0.16 c-0.44 0 -1.48 -0.48 -1.84 -0.88 c-0.16 -0.16 -0.36 -0.4 -0.48 -0.48 c-0.92 -0.88 -1.68 -1.96 -1.92 -2.76 c-0.12 -0.32 -0.2 -0.64 -0.2 -0.72 l-0.04 -1.52 c0 -0.68 0.04 -1.2 0.08 -1.2 s0.04 -0.12 0.04 -0.28 l0 -0.16 c0 -0.2 0.04 -0.48 0.08 -0.72 l0.08 -0.72 l0 -0.12 l0.08 -0.48 c0.08 -0.16 0.12 -0.36 0.12 -0.44 l0.08 -0.32 l0.12 -0.72 c0.04 -0.32 0.12 -0.56 0.2 -0.6 c0.04 -0.04 0.08 -0.08 0.08 -0.12 l-0.04 -0.28 l0.04 -0.24 c0.04 -0.16 0.16 -0.52 0.2 -0.84 l0.24 -0.8 l-0.04 -0.04 c0 -0.2 0.16 -0.68 0.32 -1 c0.12 -0.24 0.2 -0.52 0.24 -0.64 c0 -0.12 0.08 -0.2 0.12 -0.2 l0.08 -0.04 l-0.08 -0.16 c0 -0.16 0.12 -0.52 0.2 -0.68 l0.32 -0.88 c0.24 -0.6 0.36 -0.88 0.64 -0.88 c0.16 0 0.36 0.08 0.64 0.28 c0.32 0.16 0.64 0.36 0.72 0.44 s0.2 0.16 0.24 0.16 c0.12 0 0.4 0.4 0.44 0.6 c0 0.08 0.08 0.16 0.12 0.16 s0.12 0.16 0.2 0.4 c0.04 0.12 0.04 0.28 0.04 0.4 c0 0.28 -0.08 0.52 -0.24 0.68 c-0.08 0.04 -0.12 0.24 -0.12 0.4 s-0.12 0.48 -0.24 0.68 l-0.24 0.6 c0 0.12 -0.12 0.56 -0.28 0.92 l-0.52 1.88 l-0.28 1.12 c0 0.12 -0.08 0.2 -0.12 0.2 s-0.08 0.04 -0.08 0.08 l0.04 0.28 c0 0.28 -0.08 0.76 -0.16 1.08 c-0.08 0.16 -0.12 0.48 -0.32 1.72 c0 0.2 -0.12 0.4 -0.16 0.4 c-0.08 0 -0.12 0.04 -0.12 0.08 l0.04 0.04 l0.08 0 c0.08 0 0.08 0.08 0.08 0.2 l-0.04 0.48 c-0.04 0.24 -0.04 0.6 -0.04 0.84 l0.04 0.32 l-0.04 0.2 l-0.04 0.48 c0 0.16 0.04 0.24 0.2 0.24 s0.4 -0.04 0.72 -0.2 c0.88 -0.4 1 -0.48 1 -0.6 s0.48 -0.48 0.84 -0.64 c0.08 0 0.2 -0.12 0.2 -0.2 s0.08 -0.12 0.16 -0.12 c0.12 0 0.36 -0.36 0.36 -0.48 l0 -0.08 l0.08 0 c0.08 0 0.2 -0.08 0.24 -0.16 l0.16 -0.08 l0.16 0 c0.16 0 0.32 -0.2 0.32 -0.36 l-0.04 -0.2 l0.04 -0.04 c0.04 0 0.2 -0.16 0.36 -0.28 c0.16 -0.16 0.32 -0.28 0.36 -0.28 c0.12 0 0.48 -0.28 0.56 -0.44 l0 -0.08 l-0.04 -0.04 l-0.16 0.08 l0 -0.08 c0.04 -0.08 0.16 -0.12 0.28 -0.12 s0.24 -0.08 0.32 -0.16 l0.04 -0.08 l-0.08 0 c-0.08 0 -0.08 -0.04 -0.12 -0.08 c0 -0.08 0 -0.12 0.04 -0.12 l0.16 0.04 c0.16 0 0.32 -0.16 0.68 -0.56 c0.32 -0.36 0.6 -0.6 0.64 -0.6 s0.04 -0.12 0.04 -0.2 l0 -0.08 c0 -0.2 0.12 -0.32 0.32 -0.4 c0.08 -0.04 0.12 -0.08 0.12 -0.16 l0 -0.04 c0 -0.04 0.04 -0.04 0.12 -0.04 c0.16 0 0.64 -0.56 0.64 -0.68 c0 -0.08 0.08 -0.12 0.16 -0.12 c0.12 0 0.2 -0.08 0.2 -0.16 l0 -0.08 c0 -0.12 0.08 -0.24 0.16 -0.24 l0.04 0 c0.04 0 0.12 -0.08 0.16 -0.2 s0.12 -0.2 0.16 -0.2 c0.08 0 0.32 -0.2 0.52 -0.44 l0.56 -0.6 l0.08 -0.16 l-0.08 -0.2 l0.08 -0.04 l0.24 0.12 l0.24 -0.12 l0.08 -0.12 l-0.12 0 c-0.04 0 -0.04 0 -0.04 -0.04 l0 -0.04 c0 -0.12 0.08 -0.16 0.16 -0.16 s0.16 -0.16 0.2 -0.32 l0.12 -0.2 l0.08 0.12 l0 -0.08 c0 -0.08 0.2 -0.32 0.4 -0.48 c0.24 -0.16 0.44 -0.36 0.44 -0.4 l0 -0.04 c0 -0.08 0.16 -0.24 0.52 -0.44 c0.16 -0.12 0.32 -0.24 0.36 -0.32 l-0.04 -0.08 l-0.08 0.04 l0.12 -0.2 c0.16 -0.12 0.28 -0.24 0.32 -0.24 s0.08 -0.04 0.08 -0.08 c-0.04 -0.04 -0.08 -0.04 -0.2 -0.04 l-0.08 0.04 l0.04 -0.12 c0.08 -0.08 0.16 -0.12 0.2 -0.12 l0.08 0.04 c0.12 0 0.24 -0.12 0.28 -0.24 l0.04 -0.08 l-0.08 0.04 c-0.08 0.04 -0.16 0.12 -0.24 0.12 l-0.08 -0.04 l0.12 -0.12 c0.12 -0.08 0.24 -0.24 0.28 -0.28 c0.04 -0.08 0.12 -0.12 0.24 -0.12 c0.08 0 0.12 -0.04 0.12 -0.08 l0 -0.12 c0 -0.08 0.16 -0.32 0.48 -0.68 c0.32 -0.28 0.56 -0.64 0.56 -0.72 l0 -0.04 c0 -0.2 0.28 -0.8 0.44 -0.92 l0.12 -0.04 l0.48 0.08 c0.24 0.04 0.44 0.2 0.88 0.64 l0.68 0.68 c0.16 0.12 0.28 0.32 0.32 0.44 c0.04 0.24 0.48 0.92 0.6 0.92 c0.08 0 0.16 0.2 0.16 0.44 c0 0.12 -0.04 0.28 -0.08 0.36 c-0.08 0.16 -0.16 1.08 -0.2 1.92 c0 0.2 -0.04 0.4 -0.08 0.48 s-0.12 0.32 -0.16 0.52 c-0.04 0.36 -0.28 1.16 -0.6 2.08 c-0.08 0.28 -0.24 0.56 -0.36 0.64 c-0.08 0.04 -0.12 0.08 -0.12 0.12 c0.12 0 0.16 0.08 0.16 0.2 c0 0.08 -0.04 0.2 -0.12 0.32 c-0.08 0.16 -0.16 0.28 -0.16 0.36 l0 0.04 c0 0.08 -0.08 0.28 -0.16 0.44 c-0.12 0.2 -0.28 0.52 -0.32 0.68 c-0.12 0.32 -0.4 0.76 -0.48 0.76 l0 -0.08 c0 -0.04 0 -0.08 -0.04 -0.08 s-0.12 0.12 -0.16 0.28 l-0.04 0.16 l0.2 -0.04 c0.08 0 0.08 0 0.08 0.04 l0 0.08 l-0.16 0.44 c-0.04 0.16 -0.12 0.4 -0.2 0.56 c-0.12 0.24 -0.48 1.12 -0.88 2.24 c-0.04 0.12 -0.08 0.24 -0.12 0.24 s-0.08 0.04 -0.08 0.12 l0 0.04 c0 0.08 -0.04 0.2 -0.12 0.28 s-0.16 0.2 -0.16 0.32 l0 0.04 c0 0.08 -0.04 0.16 -0.12 0.24 c-0.04 0.08 -0.08 0.16 -0.08 0.28 l0.04 0.28 c0 0.04 -0.04 0.08 -0.08 0.08 c-0.08 0 -0.12 0.04 -0.12 0.12 l0 0.04 c0 0.12 0 0.2 -0.08 0.2 c-0.04 0.04 -0.08 0.12 -0.08 0.2 l-0.12 0.32 c-0.08 0.08 -0.12 0.2 -0.12 0.28 l0 0.08 l-0.04 0.08 l-0.12 0 l0.04 0.16 c0 0.08 -0.04 0.16 -0.08 0.2 c-0.08 0.08 -0.2 0.24 -0.28 0.4 s-0.2 0.32 -0.24 0.36 c-0.08 0.04 -0.08 0.2 -0.08 0.36 l0 0.12 c0 0.12 -0.04 0.2 -0.12 0.2 c-0.08 0.04 -0.2 0.12 -0.2 0.2 c0 0.12 -0.08 0.24 -0.12 0.36 c-0.2 0.4 -0.28 0.64 -0.28 0.76 l0 0.08 c0 0.24 -0.12 0.4 -0.24 0.48 c-0.08 0.04 -0.12 0.04 -0.12 0.12 l0.04 0.2 c0 0.04 -0.04 0.12 -0.12 0.2 s-0.12 0.16 -0.12 0.24 l0 0.04 c0 0.08 -0.04 0.2 -0.12 0.24 c-0.16 0.08 -0.68 1.12 -0.68 1.36 c0 0.2 -0.52 0.92 -0.68 0.92 c-0.04 0 -0.08 0.04 -0.08 0.12 l0.04 0.2 c0 0.2 0 0.32 -0.08 0.36 s-0.12 0.16 -0.16 0.32 c0 0.12 -0.12 0.4 -0.28 0.6 c-0.12 0.16 -0.24 0.36 -0.24 0.44 l0 0.04 c0 0.08 -0.04 0.12 -0.08 0.12 l-0.16 -0.04 l0 0.12 c0 0.12 -0.08 0.28 -0.16 0.44 c-0.12 0.16 -0.2 0.36 -0.2 0.4 c0 0.08 -0.08 0.24 -0.2 0.36 c-0.16 0.16 -0.24 0.32 -0.24 0.4 s0 0.12 -0.04 0.12 s-0.2 0.2 -0.28 0.44 c-0.12 0.2 -0.28 0.44 -0.36 0.52 c-0.08 0.04 -0.12 0.08 -0.12 0.12 l0 0.04 c0 0.08 -0.16 0.36 -0.36 0.6 c-0.24 0.32 -0.44 0.6 -0.44 0.68 c-0.04 0.08 -0.16 0.28 -0.32 0.4 c-0.2 0.12 -0.36 0.32 -0.44 0.4 c-0.44 0.68 -1.48 1.72 -1.92 2 c-0.36 0.2 -0.56 0.28 -0.8 0.28 z M84.84000000000002 9.239999999999998 c0.04 0 0.12 -0.04 0.12 -0.08 l0 -0.04 l-0.08 0 l-0.12 0.08 c0 0.04 0.04 0.04 0.08 0.04 z M84.00000000000001 9.52 l0.12 -0.12 l-0.04 -0.04 c-0.04 0 -0.08 0.04 -0.08 0.08 l-0.04 0.04 z M82.24000000000001 9.68 l-0.04 -0.04 c0 -0.04 0.04 -0.12 0.12 -0.2 c0.04 -0.04 0.08 -0.08 0.12 -0.08 l0 0.04 c0 0.04 -0.04 0.12 -0.12 0.2 z M83.76000000000002 9.8 l0.12 -0.12 l-0.04 -0.04 c-0.04 0 -0.08 0.04 -0.08 0.08 l-0.04 0.04 z M84.20000000000002 9.879999999999999 l0.12 -0.04 c0.04 0 0.08 -0.04 0.08 -0.08 s0 -0.04 -0.04 -0.04 l-0.12 0.08 z M82.56000000000002 9.879999999999999 l0.04 -0.08 l-0.08 -0.04 l0 0.04 z M83.92000000000002 10.2 c0.12 0 0.2 -0.04 0.2 -0.12 l-0.08 -0.12 c-0.04 -0.04 -0.08 -0.04 -0.12 -0.04 l-0.08 0.04 c-0.04 0.04 -0.12 0.08 -0.2 0.08 l-0.08 0 l0.12 0.08 z M83.36000000000001 10.079999999999998 l0 -0.04 l-0.08 -0.04 c-0.04 0 -0.04 0 -0.04 0.04 l0 0.04 l0.12 0 z M83.08000000000001 10.64 c0.04 0 0.16 -0.08 0.2 -0.24 l0.08 -0.16 c-0.04 0 -0.08 0.04 -0.16 0.12 c-0.12 0.12 -0.2 0.2 -0.2 0.24 s0.04 0.04 0.08 0.04 z M83.52000000000001 10.64 c0.08 0 0.12 0 0.12 -0.04 l-0.08 -0.04 l-0.16 0.08 l0.12 0 z M84.64000000000001 11 l0.08 -0.04 c0.12 -0.04 0.2 -0.08 0.2 -0.12 c-0.04 -0.04 -0.04 -0.08 -0.08 -0.08 l-0.16 0.04 c-0.08 0.04 -0.12 0.08 -0.12 0.12 s0 0.08 0.08 0.08 z M82.92000000000002 11.04 c0.08 0 0.12 -0.04 0.12 -0.12 c0 -0.04 -0.04 -0.08 -0.08 -0.08 c-0.08 0 -0.12 0.04 -0.16 0.08 c0 0.08 0.04 0.12 0.12 0.12 z M83.20000000000002 11.120000000000001 c0.04 0 0.08 -0.04 0.08 -0.08 l0 -0.04 c0 -0.04 0 -0.08 -0.04 -0.08 s-0.08 0.08 -0.08 0.12 z M84.04000000000002 11.719999999999999 l0.16 -0.12 l0.16 -0.16 l-0.2 0.04 c-0.08 0.08 -0.16 0.16 -0.16 0.2 z M82.24000000000001 12.04 l0.04 -0.08 l-0.04 -0.04 c0 -0.04 -0.04 -0.04 -0.04 -0.04 l0 0.08 z M84.08000000000001 12.239999999999998 c0.08 0 0.08 -0.04 0.08 -0.12 s-0.04 -0.16 -0.12 -0.2 l-0.04 0 c-0.04 0 -0.04 0.04 -0.04 0.12 c0.04 0.12 0.08 0.2 0.12 0.2 z M82.92000000000002 13.079999999999998 l0.04 -0.04 l-0.04 -0.12 l0.24 0 c0.24 0 0.52 -0.12 0.52 -0.24 l0 -0.04 c0 -0.04 0.04 -0.08 0.08 -0.08 l0.12 0 c0.04 0 0.08 0 0.08 -0.04 c-0.04 -0.08 -0.12 -0.08 -0.2 -0.08 c-0.12 0 -0.2 0.08 -0.24 0.12 c0 0.08 -0.04 0.12 -0.12 0.12 l-0.12 0 c-0.08 0 -0.2 0.04 -0.28 0.08 c-0.12 0.08 -0.16 0.2 -0.16 0.24 s0 0.08 0.08 0.08 z M81.56000000000002 12.719999999999999 c0.04 0 0.08 -0.04 0.08 -0.08 c0 -0.08 -0.04 -0.12 -0.08 -0.12 l-0.08 0.12 c0 0.04 0 0.08 0.08 0.08 z M84.28000000000002 12.8 l0.08 -0.04 l-0.04 0 c0 -0.04 -0.04 -0.04 -0.04 -0.04 c-0.04 0 -0.08 0 -0.08 0.04 z M83.80000000000001 13.04 l0.08 -0.04 l0.08 -0.12 l-0.04 -0.08 c0 -0.04 -0.04 -0.04 -0.04 -0.04 l-0.04 0 c-0.04 0 -0.12 0.08 -0.12 0.2 c0.04 0.08 0.04 0.08 0.08 0.08 z M83.92000000000002 13.440000000000001 l0.08 -0.04 l0.04 -0.16 c0 -0.04 0 -0.04 -0.04 -0.04 z M82.76000000000002 13.719999999999999 l0.04 -0.08 c0 -0.04 0.08 -0.04 0.12 -0.04 l0.2 0 c-0.04 -0.04 -0.08 -0.04 -0.08 -0.08 l0 -0.04 c0 -0.04 -0.04 -0.12 -0.12 -0.16 l-0.08 0 c-0.08 0.04 -0.16 0.16 -0.16 0.24 c0 0.04 0 0.08 0.04 0.12 z M81.76000000000002 14.280000000000001 c0.08 0 0.24 -0.16 0.4 -0.36 c0.08 -0.08 0.2 -0.16 0.28 -0.16 c0.04 0 0.08 -0.04 0.08 -0.08 l0 -0.04 c0 -0.04 0 -0.16 0.04 -0.24 l0 -0.04 c-0.08 0 -0.16 0.12 -0.32 0.32 c-0.2 0.24 -0.4 0.44 -0.44 0.44 c-0.08 0 -0.12 0.04 -0.12 0.08 s0.04 0.08 0.08 0.08 z M82.04000000000002 13.719999999999999 l0 -0.04 l-0.08 -0.04 l-0.08 0.04 l-0.04 0.04 l0.2 0 z M81.36000000000001 13.84 l0.08 -0.04 l-0.04 -0.04 l-0.12 0 l0 0.04 z M80.28000000000002 14.04 c0.16 0 0.24 -0.04 0.24 -0.08 c0 -0.08 -0.08 -0.08 -0.2 -0.08 c-0.08 0 -0.2 0.04 -0.24 0.08 c0 0.04 0.08 0.08 0.2 0.08 z M78.60000000000001 14.120000000000001 l0.04 -0.04 l0 -0.04 c-0.04 -0.08 -0.12 -0.12 -0.16 -0.12 l-0.08 0.04 l0.04 0.08 z M80.28000000000002 14.48 c0.04 0 0.04 -0.04 0.04 -0.08 s-0.08 -0.08 -0.12 -0.08 s-0.04 0 -0.04 0.04 l0 0.04 z M81.44000000000001 14.84 c0.04 0 0.04 0 0.04 -0.04 s0.04 -0.08 0.08 -0.08 l0.08 0 l0.08 -0.04 l0 -0.08 l-0.12 0.04 l-0.04 -0.08 c0 -0.04 0 -0.04 -0.04 -0.04 c0 0 -0.04 0 -0.08 0.08 c-0.04 0.04 -0.08 0.08 -0.08 0.12 s0 0.08 0.04 0.08 z M79.96000000000001 14.760000000000002 l0 -0.04 c0 -0.04 -0.04 -0.04 -0.08 -0.04 c0 0 -0.04 0 -0.04 0.04 l0 0.04 l0.12 0 z M80.88000000000001 15.399999999999999 c0.04 0 0.16 -0.08 0.24 -0.16 l0.08 -0.2 c-0.12 0 -0.4 0.24 -0.4 0.32 c0 0.04 0 0.04 0.04 0.04 l0.04 0 z M79.44000000000001 15.440000000000001 c0.04 0 0.08 -0.04 0.08 -0.12 l-0.04 -0.08 c-0.04 0 -0.08 0.04 -0.08 0.08 l0 0.04 c0 0.04 0 0.08 0.04 0.08 z M80.36000000000001 16.36 l0.04 -0.04 l-0.04 -0.16 c0 -0.16 0 -0.2 0.08 -0.2 s0.12 0 0.12 -0.08 c0 -0.04 -0.08 -0.08 -0.16 -0.08 s-0.16 -0.08 -0.16 -0.16 s-0.08 -0.12 -0.16 -0.12 s-0.12 0.04 -0.12 0.08 s0.04 0.12 0.16 0.16 c0.08 0.04 0.12 0.16 0.12 0.32 s0.08 0.28 0.12 0.28 z M80.44000000000001 15.68 l0.12 -0.04 c0.04 -0.04 0.08 -0.04 0.08 -0.08 l0 -0.04 l-0.04 0 c-0.04 0 -0.08 0.04 -0.12 0.08 z M81.20000000000002 15.8 c0.04 0 0.08 -0.04 0.08 -0.08 c0 -0.08 -0.04 -0.12 -0.08 -0.12 l-0.08 0.12 c0 0.04 0 0.08 0.08 0.08 z M79.84000000000002 15.8 c0.04 0 0.04 0 0.04 -0.04 s-0.08 -0.08 -0.12 -0.12 l-0.08 0 z M80.76000000000002 15.879999999999999 c0.04 0 0.08 -0.04 0.12 -0.08 c0 -0.04 0 -0.08 -0.08 -0.08 c-0.04 0 -0.08 0.04 -0.08 0.08 z M76.68 15.879999999999999 l-0.12 0 l0 -0.04 c0 -0.04 0.04 -0.04 0.04 -0.04 c0.04 0 0.08 0 0.08 0.04 l0 0.04 z M78.24000000000001 16.16 l-0.04 -0.04 c0 -0.04 -0.04 -0.04 -0.04 -0.04 l-0.08 0.04 c0 0.04 0 0.04 0.08 0.04 l0.08 0 z M81.60000000000001 16.16 l-0.08 0 c-0.04 0 -0.08 0 -0.08 -0.04 l0.08 -0.04 l0.08 0.04 l0 0.04 z M79.80000000000001 16.68 c0.12 0 0.28 -0.04 0.28 -0.12 l-0.04 -0.08 l-0.2 0.08 l-0.04 -0.04 l0.12 -0.12 c0.08 -0.08 0.12 -0.16 0.12 -0.2 c-0.04 0 -0.16 0.08 -0.28 0.24 l-0.16 0.24 l0.2 0 z M78.16000000000001 16.72 c0.04 0 0.12 -0.04 0.16 -0.12 l0.04 -0.2 c-0.04 0 -0.12 0.08 -0.16 0.16 l-0.08 0.12 z M78.84000000000002 16.56 l0.12 -0.04 c0 -0.08 -0.12 -0.12 -0.2 -0.12 l-0.04 0.04 c0 0.08 0.04 0.12 0.12 0.12 z M69.60000000000001 16.64 l0.12 -0.16 l-0.04 -0.04 c-0.04 0 -0.08 0.04 -0.08 0.12 l-0.04 0.04 z M77.52000000000001 16.84 l0.08 -0.04 l-0.08 -0.08 l-0.08 0.04 c0 0.04 0 0.08 0.08 0.08 z M79.08000000000001 17.28 c0.04 0 0.16 -0.04 0.2 -0.12 l0.12 -0.24 c-0.04 0 -0.12 0.04 -0.24 0.2 l-0.12 0.12 c0 0.04 0 0.04 0.04 0.04 z M77.20000000000002 17.28 l-0.04 -0.04 c0 -0.04 -0.04 -0.04 -0.04 -0.04 l-0.08 0.04 c0 0.04 0 0.04 0.08 0.04 l0.08 0 z M76.72000000000001 17.36 l0.04 -0.08 l-0.08 -0.08 l-0.04 0.08 c0.04 0.04 0.04 0.08 0.08 0.08 z M85.16000000000001 17.56 l0.04 -0.04 c0.04 -0.04 0.08 -0.08 0.08 -0.16 l-0.04 -0.04 l-0.08 0 l-0.08 0.16 z M78.84000000000002 17.68 c0.08 0 0.12 -0.04 0.16 -0.12 c0 -0.04 0 -0.08 -0.04 -0.08 c-0.08 0 -0.12 0.04 -0.16 0.08 c0 0.08 0 0.12 0.04 0.12 z M79.36000000000001 17.68 c0.04 0 0.08 -0.04 0.08 -0.12 l0 -0.04 c0 -0.04 0 -0.04 -0.04 -0.04 s-0.08 0.04 -0.08 0.08 c0 0.08 0.04 0.12 0.04 0.12 z M78.36000000000001 17.64 l0.04 -0.08 l-0.04 -0.04 c-0.04 0 -0.04 -0.04 -0.04 -0.04 c-0.04 0 -0.04 0.04 -0.04 0.08 l0.04 0.08 l0.04 0 z M79.56000000000002 18.04 c0.04 0 0.16 -0.12 0.32 -0.32 l0.08 -0.16 l-0.04 0 c-0.24 0.24 -0.4 0.4 -0.4 0.44 z M84.88000000000001 18.08 l0.2 -0.08 l0.24 -0.16 l-0.12 -0.12 c-0.08 -0.04 -0.16 -0.04 -0.2 -0.04 l-0.12 0.12 l-0.08 0.2 c0 0.04 0.04 0.08 0.08 0.08 z M78.28000000000002 18.24 c0.08 0 0.12 -0.08 0.16 -0.16 c0 -0.04 0.04 -0.08 0.08 -0.08 l0.08 0 l0.04 -0.08 c-0.04 -0.12 -0.04 -0.16 -0.08 -0.16 l-0.2 0.24 c-0.08 0.08 -0.12 0.16 -0.12 0.2 z M77.96000000000001 18.04 l0.2 -0.08 l0.04 -0.08 c0 -0.04 0 -0.04 -0.04 -0.04 c0 0 0 -0.04 -0.04 -0.04 c-0.04 0.04 -0.08 0.04 -0.12 0.12 l-0.04 0.08 l0 0.04 z M79.16000000000001 18.32 l0.16 -0.08 l0.04 -0.08 l-0.2 -0.04 c-0.08 0 -0.08 0 -0.08 0.08 s0.04 0.12 0.08 0.12 z M85.44000000000001 18.32 c0.04 0 0.08 -0.04 0.08 -0.08 l0.04 -0.08 l-0.04 -0.04 l-0.08 0.12 l0 0.08 z M76.56000000000002 18.52 c0.04 0 0.08 -0.04 0.08 -0.12 l-0.04 -0.08 c-0.04 0 -0.08 0.04 -0.08 0.08 l0 0.04 c0 0.04 0 0.08 0.04 0.08 z M78.20000000000002 18.52 l0.12 -0.16 l-0.04 -0.04 c-0.04 0 -0.08 0.04 -0.08 0.08 l-0.04 0.08 z M76.92000000000002 18.4 l-0.04 -0.04 c0 -0.04 -0.04 -0.04 -0.04 -0.04 c-0.04 0 -0.08 0 -0.08 0.04 l0 0.04 l0.16 0 z M78.96000000000001 18.4 l0 -0.04 l-0.08 -0.04 l-0.08 0.04 c0 0.04 0.04 0.04 0.08 0.04 l0.08 0 z M78.48000000000002 18.48 l0.04 -0.08 l-0.08 -0.08 l0 0.08 z M69.32000000000001 18.64 l0.04 -0.08 l0 -0.04 c0 -0.08 -0.04 -0.12 -0.08 -0.12 c-0.08 0 -0.08 0.08 -0.08 0.16 c0 0.04 0.04 0.08 0.08 0.08 l0.04 0 z M83.32000000000002 18.68 c0.04 0 0.12 -0.04 0.12 -0.08 l0 -0.04 c0 -0.04 0 -0.04 -0.04 -0.04 s-0.12 0.04 -0.12 0.08 l-0.04 0.04 z M77.4 18.68 l0.04 -0.08 l-0.04 -0.08 l-0.04 0 c-0.04 0 -0.04 0.04 -0.04 0.08 c0.04 0.08 0.04 0.08 0.08 0.08 z M75.64000000000001 18.88 c0 0 0.08 -0.04 0.08 -0.08 l0.04 -0.08 l-0.04 -0.04 c-0.04 0 -0.08 0.04 -0.08 0.12 l-0.04 0.04 z M77.08000000000001 18.88 c0.08 0 0.08 -0.04 0.08 -0.08 c0 -0.08 -0.04 -0.12 -0.04 -0.12 c-0.04 0 -0.08 0.04 -0.08 0.12 l0 0.04 z M76.4 18.92 l0.04 -0.04 l-0.04 -0.08 c-0.04 -0.04 -0.08 -0.04 -0.12 -0.04 l-0.12 0 l-0.08 0.04 c0 0.04 0.04 0.04 0.12 0.08 z M78.60000000000001 18.88 l-0.08 -0.04 l0 -0.04 l0.12 0 l0 0.04 z M77.48000000000002 19.16 l0.2 -0.08 l0.08 -0.12 l-0.12 -0.12 c-0.04 0 -0.12 0.04 -0.2 0.12 l-0.04 0.12 c0 0.04 0.04 0.08 0.08 0.08 z M75.44000000000001 19.4 l0.04 -0.08 c0.04 -0.04 0.04 -0.08 0.04 -0.16 l0 -0.08 c0 -0.04 -0.04 -0.12 -0.08 -0.12 s-0.04 0.04 -0.04 0.12 z M73.40000000000002 19.24 l-0.04 -0.04 l0 -0.04 c0 -0.04 0.04 -0.08 0.08 -0.08 s0.04 0.04 0.04 0.08 l0 0.04 z M74.76000000000002 19.36 l0.12 -0.12 c0 -0.04 0 -0.08 -0.04 -0.08 l-0.08 0.08 l0 0.12 z M85.04000000000002 19.36 c0.08 0 0.16 -0.04 0.16 -0.12 c-0.04 -0.04 -0.08 -0.08 -0.12 -0.08 s-0.12 0.04 -0.12 0.08 l0 0.04 c0 0.04 0.04 0.08 0.08 0.08 z M76.12000000000002 20.04 l0.36 -0.04 c0.04 0 0.2 -0.08 0.28 -0.16 l0.36 -0.32 c0.08 -0.08 0.12 -0.16 0.12 -0.2 l0 -0.04 c0 -0.04 -0.04 -0.04 -0.04 -0.04 c-0.08 0 -0.2 0.12 -0.36 0.28 c-0.2 0.24 -0.36 0.36 -0.44 0.36 c-0.04 0 -0.08 0 -0.08 -0.08 c-0.04 -0.04 -0.04 -0.08 -0.12 -0.08 l-0.16 0.08 l-0.08 0.12 c0 0.08 0.08 0.12 0.16 0.12 z M84.16000000000001 19.8 l0.12 -0.12 l0.08 -0.16 l0 -0.04 c-0.04 0 -0.04 -0.04 -0.04 -0.04 c-0.04 0 -0.08 0.04 -0.12 0.08 c-0.04 0.08 -0.04 0.16 -0.04 0.2 l0 0.08 z M84.68 19.8 l0 -0.04 l-0.04 -0.12 c-0.04 0 -0.04 0.04 -0.04 0.08 c0 0.08 0.04 0.08 0.08 0.08 z M75.16000000000001 19.92 l0.08 -0.12 l0 -0.08 c-0.04 0 -0.08 0.04 -0.12 0.08 c0 0.08 0 0.12 0.04 0.12 z M68.40000000000002 19.92 l0.04 -0.04 l0 -0.04 l-0.12 0 l0 0.04 z M84.16000000000001 20 l0.08 -0.04 l0 -0.04 l-0.12 0 l0 0.04 z M77.56000000000002 20.2 c0.04 0 0.08 -0.04 0.08 -0.08 l0 -0.04 c0 -0.04 0 -0.08 -0.04 -0.08 s-0.08 0.04 -0.08 0.08 l0 0.04 c0 0.04 0 0.08 0.04 0.08 z M84.84000000000002 20.44 l0.04 -0.04 c0 -0.04 -0.04 -0.2 -0.12 -0.28 s-0.08 -0.12 -0.12 -0.12 l0.08 0.12 l0.08 0.28 z M83.92000000000002 20.36 c0.08 0 0.16 -0.04 0.2 -0.12 l0.04 -0.16 c-0.04 0 -0.12 0.08 -0.2 0.16 z M75.28000000000002 20.72 l0.16 -0.04 l0.48 -0.08 l0.44 -0.04 c0.08 0 0.12 -0.04 0.12 -0.12 l0 -0.04 c0 -0.08 0 -0.08 -0.04 -0.08 l-0.08 0.04 c-0.04 0.08 -0.12 0.12 -0.16 0.12 s-0.04 -0.04 -0.04 -0.08 l0.04 -0.08 l-0.04 -0.04 l-0.04 0.08 c-0.08 0.04 -0.24 0.12 -0.44 0.12 c-0.16 0 -0.32 0.04 -0.36 0.12 z M84.16000000000001 20.76 c0.04 0 0.04 -0.04 0.04 -0.12 c-0.04 -0.04 -0.08 -0.08 -0.12 -0.08 l-0.08 0.04 l0.04 0.04 c0.04 0.08 0.08 0.12 0.12 0.12 z M74.76000000000002 22.16 c0.04 0 0.08 0 0.08 -0.04 c0.04 -0.08 0.2 -0.2 0.32 -0.32 c0.16 -0.12 0.32 -0.16 0.32 -0.16 l0.04 0.04 l-0.04 -0.08 c0 -0.04 0.04 -0.16 0.12 -0.28 c0.08 -0.08 0.16 -0.24 0.16 -0.32 l-0.04 -0.12 l0.04 -0.04 l0.12 0.12 c-0.04 -0.12 -0.12 -0.2 -0.2 -0.2 c-0.04 0.04 -0.04 0.08 -0.04 0.12 c0 0.08 -0.04 0.12 -0.08 0.12 l-0.12 0 c-0.08 0 -0.12 0 -0.16 0.04 l-0.08 0.08 l0.12 0 c0.08 0 0.16 0.04 0.16 0.08 l0 0.04 c0 0.08 -0.04 0.08 -0.16 0.08 l-0.16 0 c-0.04 0 -0.16 0.08 -0.24 0.16 c-0.08 0.12 -0.2 0.2 -0.28 0.2 l-0.08 0.04 l0.08 0.2 l-0.08 0.04 c0 0.04 0.04 0.08 0.08 0.12 c0.04 0.08 0.08 0.08 0.12 0.08 z M73.76000000000002 21.2 l0.04 -0.08 l-0.04 -0.04 c0 -0.04 -0.04 -0.04 -0.04 -0.04 l0 0.08 z M76.00000000000001 21.32 l0.12 -0.12 c0 -0.04 0 -0.08 -0.04 -0.08 l-0.08 0.08 l0 0.12 z M83.36000000000001 21.76 c0.04 0 0.08 -0.04 0.2 -0.16 l0.08 -0.12 l-0.04 -0.04 l-0.04 0 c-0.08 0.04 -0.16 0.12 -0.2 0.2 l0 0.12 z M82.92000000000002 22.8 c0.04 0 0.12 -0.16 0.24 -0.32 c0.08 -0.2 0.2 -0.32 0.24 -0.32 s0.08 -0.04 0.08 -0.08 l-0.04 -0.08 c-0.04 0 -0.08 0 -0.12 0.04 c-0.12 0.04 -0.44 0.6 -0.44 0.72 z M73.36000000000001 22.6 c0.04 0 0.2 -0.08 0.36 -0.28 c0.12 -0.08 0.2 -0.2 0.2 -0.24 l-0.04 -0.04 c-0.04 0 -0.16 0.12 -0.24 0.2 c-0.08 0.12 -0.2 0.2 -0.24 0.2 c-0.08 0 -0.12 0.04 -0.12 0.08 s0.04 0.08 0.08 0.08 z M72.56000000000002 22.16 l0.08 -0.04 l-0.04 -0.04 l-0.12 0 l0 0.04 z M74.48000000000002 22.32 c0.04 0 0.08 -0.04 0.12 -0.08 c0 -0.04 0 -0.08 -0.04 -0.08 l-0.08 0.08 l0 0.08 z M72.52000000000001 22.44 l0.04 -0.04 l0 -0.04 l-0.12 0 l0 0.04 z M74.12000000000002 22.8 l0.08 -0.08 c0 -0.04 0 -0.12 -0.08 -0.12 c-0.04 0 -0.08 0.08 -0.08 0.12 s0.04 0.08 0.08 0.08 z M72.92000000000002 23 l0.12 -0.16 l-0.04 -0.04 c-0.04 0 -0.08 0.04 -0.08 0.08 l-0.04 0.08 z M82.16000000000001 22.96 l0.04 -0.08 l-0.08 -0.04 l0 0.04 z M73.52000000000001 23.2 l0.16 -0.08 c0.12 -0.08 0.2 -0.2 0.2 -0.24 s0 -0.04 -0.04 -0.04 c-0.08 0 -0.32 0.2 -0.36 0.32 c0 0.04 0 0.04 0.04 0.04 z M81.12000000000002 23.12 c0.12 0 0.28 -0.04 0.32 -0.12 c0 -0.08 -0.08 -0.12 -0.16 -0.12 c-0.12 0 -0.2 0.08 -0.2 0.12 l0 0.04 l-0.16 -0.04 l0.04 0.08 c0.04 0.04 0.08 0.04 0.16 0.04 z M81.24000000000001 23.44 l-0.08 -0.08 l-0.08 0.04 c0 0.04 0 0.04 0.08 0.04 l0.08 0 z M73.00000000000001 23.64 c0.04 0 0.08 -0.04 0.12 -0.08 c0 -0.04 0 -0.12 -0.08 -0.12 c-0.04 0 -0.08 0.08 -0.08 0.12 z M72.68 23.8 l0.08 -0.04 c0.04 0 0.08 -0.04 0.08 -0.08 l0 -0.04 l-0.08 -0.04 l-0.04 0 c-0.08 0 -0.12 0.08 -0.12 0.16 z M80.92000000000002 24.2 c0.04 0 0.08 -0.08 0.12 -0.28 l0.08 -0.16 l-0.04 0 l-0.08 0.08 c-0.08 0.04 -0.12 0.16 -0.12 0.24 z M82.36000000000001 24.2 c0.04 0 0.08 -0.04 0.16 -0.12 l0.08 -0.12 l-0.04 -0.08 l-0.04 0 c-0.08 0 -0.12 0.08 -0.16 0.12 l-0.04 0.16 z M82.00000000000001 25.16 c0.04 0 0.08 -0.08 0.08 -0.12 c-0.04 -0.04 -0.04 -0.08 -0.08 -0.08 l-0.08 0.08 c0 0.04 0 0.12 0.08 0.12 z M80.72000000000001 25.119999999999997 l0.04 -0.08 l-0.04 -0.04 c0 -0.04 -0.04 -0.04 -0.04 -0.04 l0 0.08 z M81.04000000000002 25.16 l0.08 -0.04 l0 -0.04 l-0.08 -0.04 c-0.04 0 -0.04 0.04 -0.04 0.04 l0 0.04 z M78.68 25.68 l-0.04 0 l-0.04 -0.08 c0 -0.04 0 -0.08 0.04 -0.08 l0 0.04 c0.04 0 0.04 0.04 0.04 0.08 l0 0.04 z M82.4 25.68 l0 -0.04 l-0.08 -0.04 l-0.12 0.08 l0.2 0 z M82.16000000000001 25.880000000000003 l0 -0.04 c0 -0.04 -0.04 -0.04 -0.08 -0.04 s-0.08 0 -0.08 0.04 l-0.04 0 c0 0.04 0 0.04 0.08 0.04 l0.12 0 z M82.56000000000002 25.96 l-0.04 -0.16 c-0.04 0 -0.04 0.04 -0.04 0.08 l0.04 0.08 l0.04 0 z M81.12000000000002 26.2 c0.2 0 0.52 -0.24 0.52 -0.32 c0 -0.04 -0.04 -0.04 -0.04 -0.04 c-0.04 0 -0.08 0 -0.08 0.04 c-0.08 0.08 -0.16 0.08 -0.24 0.08 l-0.08 -0.04 c-0.08 0 -0.16 0.08 -0.16 0.2 l0 0.04 z M81.16000000000001 26.759999999999998 c0.04 0 0.08 0 0.12 -0.08 c0.12 -0.08 0.16 -0.24 0.16 -0.28 c0 -0.08 -0.08 -0.12 -0.12 -0.12 s-0.08 0.04 -0.08 0.12 l0 0.04 l-0.08 -0.08 l-0.08 -0.04 c-0.04 0 -0.04 0.04 -0.08 0.16 l-0.04 0.16 c0 0.04 0 0.04 0.04 0.04 l0.04 0 c0.04 0 0.08 0 0.08 0.04 s0 0.04 0.04 0.04 z M80.88000000000001 27.36 l0.36 -0.24 l-0.12 0 c-0.12 0 -0.24 0.04 -0.24 0.12 l0 0.12 z M80.76000000000002 28.04 c0.04 0 0.08 -0.08 0.08 -0.16 l0 -0.04 c0 -0.04 0 -0.08 0.04 -0.08 s0.08 -0.04 0.08 -0.08 l-0.12 -0.16 c-0.04 0 -0.08 0 -0.12 0.04 l-0.12 0.04 l-0.08 0 l0.16 0.32 l0 0.08 z M80.32000000000002 28.04 c0.04 0 0.08 -0.08 0.16 -0.16 l0.04 -0.12 l-0.24 0.24 c0 0.04 0 0.04 0.04 0.04 z M77.56000000000002 27.96 c-0.08 0 -0.08 -0.04 -0.08 -0.08 l0.08 -0.04 l0.08 0.08 z M80.36000000000001 28.6 l0.16 -0.04 c0.08 -0.04 0.12 -0.12 0.12 -0.2 s-0.12 -0.2 -0.28 -0.2 c-0.12 0 -0.2 0.04 -0.2 0.08 l0 0.04 c0 0.08 -0.04 0.12 -0.12 0.12 l-0.04 0.04 z M79.16000000000001 28.4 l0.04 -0.04 l-0.04 -0.12 c-0.04 0 -0.04 0.04 -0.04 0.08 z M80.92000000000002 28.68 c0.08 0 0.12 -0.04 0.16 -0.08 l0.04 -0.08 l-0.04 -0.08 c-0.04 0 -0.08 0.04 -0.16 0.12 l-0.04 0.08 z M79.48000000000002 28.880000000000003 c0.04 0 0.12 -0.04 0.12 -0.12 l0.04 -0.08 l-0.04 -0.04 c-0.04 0 -0.08 0 -0.12 0.08 l-0.04 0.12 c0 0.04 0 0.04 0.04 0.04 z M80.24000000000001 29 c0 0 0.04 -0.04 0.04 -0.16 c0 -0.08 -0.04 -0.12 -0.12 -0.12 c-0.04 0 -0.08 0.04 -0.08 0.08 l0.04 0.08 c0.04 0.08 0.08 0.12 0.12 0.12 z M79.52000000000001 30.36 l0.24 -0.08 c0.04 -0.04 0.08 -0.04 0.08 -0.08 l-0.04 0 c-0.04 0 -0.08 -0.04 -0.08 -0.16 l0 -0.32 c-0.04 0 -0.08 0.04 -0.12 0.12 c-0.08 0.12 -0.16 0.28 -0.16 0.4 c0 0.08 0.04 0.12 0.08 0.12 z M78.12000000000002 30.08 c0.04 0 0.08 -0.04 0.08 -0.08 l0 -0.04 c0 -0.04 0 -0.04 -0.04 -0.04 s-0.08 0.04 -0.08 0.08 z M77.4 30.560000000000002 l0.08 -0.04 l0 -0.04 l-0.12 0 l0 0.04 z M78.60000000000001 30.64 l0.04 -0.08 l-0.04 -0.08 l-0.04 0 c-0.04 0 -0.04 0.04 -0.04 0.08 c0.04 0.08 0.04 0.08 0.08 0.08 z M79.08000000000001 31.16 c0.04 0 0.08 -0.04 0.08 -0.12 l0 -0.04 c0 -0.08 0.04 -0.16 0.16 -0.2 c0.08 -0.04 0.16 -0.12 0.16 -0.16 s-0.04 -0.08 -0.12 -0.08 c-0.04 0 -0.08 0.08 -0.16 0.12 c-0.04 0.08 -0.16 0.16 -0.2 0.16 c-0.08 0 -0.12 0 -0.12 0.04 l0.08 0.2 c0.04 0.08 0.08 0.08 0.12 0.08 z M75.80000000000001 31.28 c-0.04 0 -0.04 -0.04 -0.08 -0.08 l0.04 -0.08 s0.04 0 0.04 0.04 l0.04 0.04 z M78.80000000000001 31.48 c0.08 0 0.16 0 0.16 -0.04 s-0.08 -0.08 -0.12 -0.08 s-0.12 0 -0.12 0.04 l0 0.04 z M78.52000000000001 31.880000000000003 c0.04 0 0.04 0 0.04 -0.04 l-0.16 -0.12 c0 -0.04 -0.04 -0.04 -0.04 -0.04 l0.04 0.08 z M77.92000000000002 32.04 c0.08 -0.04 0.12 -0.08 0.16 -0.16 c0 -0.08 -0.04 -0.12 -0.08 -0.12 c-0.04 0.04 -0.12 0.08 -0.12 0.16 l0 0.04 c0 0.04 0 0.08 0.04 0.08 z M78.48000000000002 32.6 c0.04 0 0.08 -0.08 0.08 -0.24 c0 -0.12 0 -0.16 -0.04 -0.16 l-0.08 0.04 c-0.04 0.04 -0.08 0.12 -0.08 0.2 s0.04 0.16 0.12 0.16 z M76.36000000000001 32.519999999999996 l0.12 -0.16 l-0.04 -0.04 c-0.04 0 -0.08 0.04 -0.08 0.12 l-0.04 0.04 z M77.64000000000001 32.6 l0.12 -0.04 c0.04 -0.04 0.08 -0.04 0.08 -0.08 l0 -0.04 l-0.04 0 c-0.04 0 -0.08 0.04 -0.12 0.08 z M78.24000000000001 32.6 l0.04 -0.08 l-0.04 -0.08 l-0.04 0 l0 0.08 c0 0.08 0.04 0.08 0.04 0.08 z M77.44000000000001 32.8 l0.08 -0.08 c0 -0.08 0 -0.12 -0.08 -0.12 c-0.04 0 -0.08 0.04 -0.08 0.12 c0.04 0.04 0.04 0.08 0.08 0.08 z M78.16000000000001 32.88 c0.04 0 0.08 -0.04 0.12 -0.08 c0 -0.04 -0.04 -0.08 -0.12 -0.12 l-0.04 0 c-0.04 0 -0.04 0 -0.04 0.04 l0 0.04 c0 0.08 0.04 0.12 0.08 0.12 z M77.20000000000002 33.36 c0.04 0 0.08 -0.04 0.08 -0.12 l0 -0.08 l0.04 -0.12 l-0.12 0 l-0.08 -0.04 c0 -0.08 -0.04 -0.12 -0.12 -0.12 c-0.04 0 -0.04 0 -0.04 0.04 l0.04 0.08 c0.08 0.04 0.12 0.16 0.12 0.24 l0 0.04 c0 0.04 0.04 0.08 0.08 0.08 z M77.88000000000001 33.24 l0.08 -0.04 l-0.12 -0.2 s-0.04 0.04 -0.04 0.12 l0 0.04 c0 0.04 0.04 0.08 0.08 0.08 z M77.60000000000001 33.92 l0.16 -0.04 c0.08 -0.04 0.12 -0.08 0.12 -0.12 c0 -0.08 -0.04 -0.12 -0.12 -0.16 l-0.12 0 l0.04 0.08 l-0.04 0.04 c-0.04 0 -0.08 0.04 -0.08 0.08 l0 0.04 z M76.20000000000002 33.88 l0.04 -0.08 l-0.08 -0.04 l0 0.08 z M76.68 34.2 l0.08 -0.08 l0.04 -0.12 l0 -0.04 l-0.04 0 s-0.04 0.04 -0.04 0.12 z M77.44000000000001 34.16 c0.12 0 0.24 -0.08 0.24 -0.12 c0 0 -0.08 -0.04 -0.2 -0.04 c-0.08 0 -0.12 0.04 -0.12 0.08 l0 0.04 z M76.08000000000001 34.12 l0.08 -0.04 l0 -0.04 l-0.12 0 l0 0.04 z M75.32000000000002 34.4 c0.04 0 0.08 -0.04 0.12 -0.12 l0 -0.08 c-0.04 0 -0.08 0.04 -0.12 0.08 l0 0.12 z M77.36000000000001 34.56 c0 -0.04 0 -0.12 -0.04 -0.2 c0 -0.04 -0.04 -0.04 -0.04 -0.04 l0 0.12 c0 0.08 0.04 0.12 0.04 0.12 l0.04 0 z M75.00000000000001 34.480000000000004 c0.08 0 0.12 0 0.12 -0.04 s-0.08 -0.08 -0.12 -0.08 l-0.08 0 s-0.04 0 -0.04 0.04 l0 0.04 s0.04 0.04 0.12 0.04 z M75.96000000000001 34.480000000000004 l0.08 -0.04 l-0.04 0 c0 -0.04 -0.04 -0.04 -0.04 -0.04 l-0.08 0.04 s0 0.04 0.08 0.04 z M76.96000000000001 34.84 c0.04 0 0.12 -0.04 0.16 -0.12 l0.04 -0.2 c-0.04 0 -0.12 0.08 -0.16 0.16 l-0.08 0.12 z M76.20000000000002 34.84 c0.12 0 0.2 -0.04 0.2 -0.08 c-0.04 -0.04 -0.12 -0.08 -0.2 -0.08 c-0.12 0 -0.2 0.04 -0.2 0.08 s0.12 0.08 0.2 0.08 z M75.56000000000002 34.96 c0.08 0 0.08 -0.04 0.08 -0.12 l-0.04 -0.08 c-0.04 0 -0.08 0.04 -0.08 0.08 l0 0.04 c0 0.04 0 0.08 0.04 0.08 z M76.56000000000002 35.56 l0.04 -0.08 l-0.08 -0.04 l0 0.08 z M76.32000000000002 35.88 c0.04 0 0.08 -0.04 0.08 -0.08 l0.04 -0.08 l-0.04 -0.04 c-0.04 0 -0.08 0.04 -0.08 0.12 l-0.04 0.04 z M75.60000000000001 35.96 l0.08 -0.08 c0 -0.04 0 -0.08 -0.08 -0.08 c-0.04 0 -0.08 0.04 -0.08 0.08 s0.04 0.08 0.08 0.08 z M75.44000000000001 37.08 l0.24 -0.12 l0.08 0 l0.08 -0.16 l-0.04 -0.04 l-0.12 0.04 c-0.08 0.08 -0.2 0.16 -0.2 0.24 z M74.84000000000002 37 c0.08 0 0.12 -0.04 0.12 -0.08 c-0.04 -0.08 -0.04 -0.12 -0.08 -0.12 l-0.08 0.16 z M75.60000000000001 37.36 c0.08 0 0.16 -0.04 0.16 -0.08 s-0.08 -0.08 -0.12 -0.08 s-0.12 0.04 -0.12 0.08 l0 0.04 z M73.88000000000001 37.56 l0.08 -0.08 l0 -0.12 c-0.04 0 -0.08 0.04 -0.08 0.12 l-0.04 0.04 z M71.44000000000001 37.52 l0.04 -0.08 l-0.08 -0.04 l0 0.08 z M73.72000000000001 37.64 l0 -0.04 l-0.08 -0.04 s-0.04 0 -0.04 0.04 l0 0.04 l0.12 0 z M75.12000000000002 37.72 l0.04 -0.08 l-0.08 -0.04 l-0.04 0.04 c0.04 0.04 0.04 0.08 0.08 0.08 z M73.68 37.92 l0 -0.04 l-0.08 -0.04 l-0.08 0.04 c0 0.04 0.04 0.04 0.08 0.04 l0.08 0 z M73.68 39.24 l0.08 -0.08 l0 -0.12 l-0.12 0.12 c0 0.04 0 0.08 0.04 0.08 z M89.32000000000002 36.56 c-0.16 0 -0.28 0 -0.4 -0.04 c-1.08 -0.28 -2.04 -1 -2.68 -1.96 l-0.4 -0.52 c-0.2 -0.2 -0.68 -1.36 -0.72 -1.88 l-0.04 -1.28 c0 -0.2 0.16 -0.92 0.24 -1.08 l0.04 -0.24 l0.12 -0.56 c0.08 -0.2 0.12 -0.44 0.12 -0.44 l-0.04 -0.08 c0 -0.16 0.16 -0.56 0.44 -1 c0.16 -0.32 0.24 -0.44 0.28 -0.44 l0 0.12 c0 0.12 0 0.12 0.04 0.12 c0.04 -0.04 0.08 -0.16 0.08 -0.24 l0 -0.04 c0 -0.24 0.24 -0.92 0.4 -1.16 c0.04 -0.04 0.08 -0.08 0.08 -0.12 l0 -0.04 c0 -0.04 0.04 -0.12 0.12 -0.16 c0.24 -0.36 1.04 -1.72 1.04 -1.8 c0 -0.12 0.36 -0.48 0.68 -0.6 c0.16 -0.08 0.24 -0.08 0.32 -0.08 l0.32 0.08 l0.72 0.36 l0.36 0.28 c0.36 -0.44 0.32 -0.6 1 -0.84 c0.2 -0.12 0.32 -0.16 0.44 -0.16 c0.16 0 0.32 0 0.6 0.04 c0.84 0.08 1.56 0.44 2.16 0.96 c1.32 1.2 1.48 1.36 1.8 2.24 c0.2 0.52 0.4 1.64 0.4 2.08 l0 0.16 c-0.16 0.64 -0.44 1.36 -0.56 1.52 l-0.2 0.36 c-0.08 0.2 -0.52 0.96 -0.72 1.2 l-0.64 1 c-0.12 0.12 -0.2 0.28 -0.2 0.28 c0 0.04 -0.08 0.08 -0.16 0.16 c-0.08 0.04 -0.16 0.12 -0.16 0.16 s-0.08 0.16 -0.16 0.24 l-0.48 0.64 c-0.2 0.2 -0.36 0.4 -0.4 0.4 s-0.04 0.04 -0.04 0.08 c0 0.08 -0.04 0.16 -0.12 0.16 l-0.12 0.08 l0 0.04 c0 0.04 -0.04 0.08 -0.08 0.08 s-0.2 0.08 -0.28 0.24 l-0.64 0.6 l-0.4 0.28 l-0.56 0.36 c-0.28 0.24 -1.04 0.44 -1.6 0.44 z M87.52000000000001 34.08 c0.24 0 0.4 0 0.72 -0.08 c0.12 0 0.32 -0.08 0.48 -0.16 l0.8 -0.4 c0.12 -0.08 0.36 -0.28 0.56 -0.36 c0.44 -0.24 0.6 -0.4 1.2 -1.08 l0.64 -0.64 c0.08 -0.04 0.12 -0.16 0.12 -0.2 s0.04 -0.08 0.08 -0.08 s0.2 -0.2 0.36 -0.4 c0.12 -0.24 0.36 -0.56 0.48 -0.72 l1.12 -1.68 l0.16 -0.32 c0 -0.04 0.04 -0.2 0.12 -0.32 c0.36 -0.6 0.56 -1.28 0.56 -1.76 c0 -0.2 -0.04 -0.36 -0.16 -0.44 c-0.28 -0.2 -0.8 -0.32 -1.28 -0.32 c-0.28 0.04 -0.52 0.08 -0.68 0.16 c-0.12 0.08 -0.28 0.12 -0.32 0.12 c0 0 -0.2 0.16 -0.44 0.28 c-0.2 0.16 -0.4 0.32 -0.44 0.32 s-0.08 0.12 -0.08 0.24 c0 0.2 -0.04 0.28 -0.08 0.28 s-0.08 -0.04 -0.08 -0.12 c-0.04 -0.12 -0.04 -0.2 -0.12 -0.2 l-0.16 0.04 c-0.24 0 -0.28 -0.04 -0.44 -0.2 c-0.08 -0.16 -0.16 -0.2 -0.28 -0.2 s-0.28 0.08 -0.48 0.32 c-0.12 0.16 -0.28 0.28 -0.32 0.28 l-0.04 0 l-0.08 0.16 c-0.04 0.12 -0.08 0.2 -0.16 0.2 l-0.08 0.04 l0 0.04 c0 0.32 -0.08 0.48 -0.32 0.6 c-0.16 0.08 -0.2 0.12 -0.2 0.24 l0 0.04 c0 0.04 -0.04 0.2 -0.12 0.28 l-0.16 0.32 c0 0.04 -0.04 0.12 -0.12 0.16 c-0.04 0.04 -0.08 0.08 -0.08 0.12 l0.04 0.2 c0 0.12 -0.04 0.2 -0.12 0.32 c-0.12 0.16 -0.2 0.28 -0.2 0.32 l0 0.04 c0 0.08 -0.04 0.32 -0.24 0.92 c-0.2 0.68 -0.36 1.28 -0.36 1.52 l-0.04 0.24 c-0.04 0.16 -0.08 0.72 -0.08 1.12 l0 0.4 c0.04 0.32 0.08 0.32 0.32 0.36 z M86.76000000000002 26.36 c0.08 0 0.08 -0.04 0.08 -0.08 l-0.04 -0.08 l-0.08 0.08 z M85.72000000000001 28.96 c0 -0.04 0 -0.08 -0.04 -0.12 l-0.04 0.04 c0.04 0.08 0.04 0.08 0.08 0.08 z M85.60000000000001 29.240000000000002 l0.08 -0.04 c0 -0.04 0 -0.08 -0.04 -0.08 s-0.08 0.04 -0.08 0.08 z"></path></g></svg>
